<svg version="1.1" id="Layer_1" xmlns="http://www.w3.org/2000/svg" xmlns:xlink="http://www.w3.org/1999/xlink" x="0" y="0" width="616.7" height="54.3" style="enable-background:new 0 0 616.7 54.3" xml:space="preserve"><style>.st0{fill:#f58220}.st1{fill:#ea832b}.st2{fill:#fff}</style><symbol id="bfas_x5F_dsk" viewBox="-142.1 -26.7 284.2 53.4"><path class="st0" d="M-123.9 14.2c3 0 5.5 2.8 5.5 6.2s-2.4 6.2-5.5 6.2-5.4-2.8-5.4-6.2 2.4-6.2 5.4-6.2M-93.5 14.2c3 0 5.5 2.8 5.5 6.2s-2.4 6.2-5.5 6.2c-3 0-5.5-2.8-5.5-6.2s2.5-6.2 5.5-6.2M-81.9-9.1c-3.8-6.7-10.3-11.2-18.5-9.5 5 4.7 8.5 11.7 8.9 21.9-4.4 3.2-10.7 5.2-17.2 5.2s-12.8-2-17.2-5.2c.4-10.2 3.9-17.2 8.9-21.9-8.1-1.7-14.5 2.7-18.3 9.2l-6.8-4.8c7.2-12.6 21.7-15.1 33.5-9.9C-96.8-29.4-82.1-26.8-75-14l-6.9 4.9zm-26.7-5.6c-4.3 3.5-7 8.6-7.6 14.1 1.5.9 4.5 1.6 7.5 1.6s6.1-.7 7.5-1.6c-.5-5.5-3.2-10.5-7.4-14.1"/><path class="st0" d="M-123.9 14.2c3 0 5.5 2.8 5.5 6.2s-2.4 6.2-5.5 6.2-5.4-2.8-5.4-6.2 2.4-6.2 5.4-6.2M-93.5 14.2c3 0 5.5 2.8 5.5 6.2s-2.4 6.2-5.5 6.2c-3 0-5.5-2.8-5.5-6.2s2.5-6.2 5.5-6.2M-81.9-9.1c-3.8-6.7-10.3-11.2-18.5-9.5 5 4.7 8.5 11.7 8.9 21.9-4.4 3.2-10.7 5.2-17.2 5.2s-12.8-2-17.2-5.2c.4-10.2 3.9-17.2 8.9-21.9-8.1-1.7-14.5 2.7-18.3 9.2l-6.8-4.8c7.2-12.6 21.7-15.1 33.5-9.9C-96.8-29.4-82.1-26.8-75-14l-6.9 4.9zm-26.7-5.6c-4.3 3.5-7 8.6-7.6 14.1 1.5.9 4.5 1.6 7.5 1.6s6.1-.7 7.5-1.6c-.5-5.5-3.2-10.5-7.4-14.1M-73.4-11.7c0-.2 0-.3-.1-.5-.1-.3-.3-.5-.7-.7-.1-.1-.3-.1-.5-.1s-.3 0-.5.1c-.1.1-.3.2-.4.3s-.2.2-.2.4c-.1.3-.1.7 0 1 .1.1.1.3.3.4.1.1.2.2.4.3.1.1.3.1.5.1s.3 0 .5-.1c.1-.1.3-.1.4-.3.1-.1.2-.2.3-.4v-.5m-.3 0c0 .1 0 .3-.1.4 0 .1-.1.2-.2.3s-.2.2-.3.2c-.1.1-.2.1-.4.1-.1 0-.3 0-.4-.1-.1 0-.2-.1-.3-.2-.1-.1-.2-.2-.2-.3-.1-.1-.1-.3-.1-.4 0-.1 0-.3.1-.4 0-.1.1-.2.2-.3.2-.2.4-.3.7-.3.1 0 .3 0 .4.1s.2.1.3.2c.1.1.2.2.2.3.1.1.1.2.1.4m-1.1-.7h-.3v1.3h.5c.1 0 .3 0 .4-.1s.1-.2.1-.3 0-.2-.1-.3-.2-.1-.3-.1l.4-.6h-.3l-.3.6h-.2l.1-.5zm.2.7H-74.3s.1 0 .1.1v.2l-.1.1h-.5v-.4h.2zM-50.8 25.4c1.2 0 2.3-.1 3.4-.3.9-.2 1.8-.6 2.7-1.1.7-.5 1.3-1.2 1.7-2 .4-1 .6-2 .6-3.1 0-1.2-.3-2.3-.9-3.3-.7-1-1.6-1.7-2.7-2.2 1.5-.4 2.7-1.2 3.6-2.5.8-1.2 1.2-2.7 1.2-4.2 0-1.2-.2-2.4-.8-3.5-.5-.9-1.2-1.8-2.1-2.4s-1.9-1.1-3-1.4-2.3-.4-3.4-.4h-12.6v26.4h12.3zm-.7-10.6c.9 0 1.8.2 2.5.7.7.6 1.1 1.5 1 2.4 0 .5-.1 1-.3 1.5-.2.4-.5.7-.9.9-.4.2-.8.4-1.3.5-.4.1-.9.1-1.4.1h-5.4v-6.2l5.8.1zm.3-11.2c.5 0 1.1.1 1.6.2s.9.3 1.4.6c.4.3.7.6.9 1.1.3.5.4 1.1.4 1.7 0 1.3-.4 2.3-1.1 2.9-.9.6-1.9.9-3 .9h-6.3V3.8l6.1-.2zM-33.5 3.7c1.8-1.4 4.2-1.5 6.1-.4.6.4 1.1 1 1.4 1.7h4.6c-.7-2.3-1.9-3.9-3.4-4.9-1.7-1-3.6-1.5-5.5-1.5-1.4 0-2.8.2-4 .7-1.2.4-2.2 1.1-3.1 2s-1.5 2-1.9 3.2c-.5 1.3-.7 2.7-.7 4 0 1.4.2 2.7.7 4 .9 2.4 2.7 4.3 5 5.3 1.3.5 2.6.8 4 .8 1.5 0 2.9-.3 4.2-.9 1.2-.6 2.2-1.5 3-2.5.8-1.1 1.4-2.3 1.7-3.6.3-1.4.5-2.8.4-4.2h-13.8c.1-1.7.6-3 1.3-3.7zm5.9 10c-.8.7-1.8 1.1-2.8 1-.7 0-1.4-.1-2.1-.4-.5-.2-1-.6-1.3-1s-.6-.8-.7-1.3c-.1-.4-.2-.8-.2-1.3h8.5c-.2 1.1-.6 2.1-1.4 3zM-14.8 3.9c.2-.4.5-.7.9-1s.8-.5 1.3-.6 1-.2 1.5-.2c.4 0 .8 0 1.2.1s.8.2 1.1.4c.3.2.6.4.8.7.2.3.4.7.4 1.1 0 .8-.5 1.4-1.6 1.8-1.4.5-2.9.9-4.4 1.2-.8.2-1.5.4-2.2.6-.7.2-1.3.5-1.9.9s-1 .9-1.4 1.4c-.4.6-.5 1.4-.5 2.1 0 1.1.2 2.1.7 3 .5.8 1.1 1.4 1.9 1.8.8.5 1.7.8 2.6 1 1 .2 2 .3 3 .3s2-.1 3-.3c.9-.2 1.8-.5 2.6-1s1.4-1.1 1.9-1.9c.5-.9.8-1.9.9-2.9h-5c0 .8-.4 1.6-1.1 2-.8.4-1.6.6-2.4.6-.3 0-.6 0-1-.1-.3 0-.6-.1-.9-.2-.3-.1-.5-.3-.7-.5-.2-.3-.3-.6-.3-.9 0-.4.2-.8.5-1.1.4-.3.9-.6 1.3-.7.6-.2 1.3-.4 1.9-.5.7-.2 1.4-.3 2.2-.5.7-.2 1.5-.4 2.2-.6s1.3-.6 1.9-1c.6-.4 1-.9 1.4-1.5.4-.7.5-1.5.5-2.2.1-2.1-.9-4.1-2.8-5.2-.9-.5-1.8-.9-2.8-1.1s-2.1-.3-3.2-.3-2.2.1-3.2.3c-1 .2-1.9.6-2.8 1.1-1.8 1.1-2.9 3.1-2.9 5.2h5c0-.4.1-.9.4-1.3zM9.7 18.2v-3.5H5.9V5.3c0-.9.1-1.5.4-1.8s.9-.4 1.8-.4h.8c.3 0 .5.1.8.1v-4c-.5-.1-1-.1-1.5-.2H6.6c-.8 0-1.5.1-2.3.2-.7.1-1.3.3-1.9.6-.6.3-1 .8-1.3 1.4-.3.7-.5 1.5-.5 2.3v11.1h-3.2v3.6H.6v5.7h5.2v-5.7h3.9zM38.9 25.4v-4.9H26.2v-6.1h11V9.9h-11V-1h-5.8v26.4h18.5zM45.4 18.2v-3.5h.1c.2.6.6 1.1 1 1.6s.9.9 1.4 1.3 1.1.6 1.7.8c.6.2 1.3.3 1.9.3.4 0 .8-.1 1.1-.2v-4.9c-.3.1-.6.1-.9.1-.3 0-.7.1-1 .1-.8 0-1.7-.1-2.4-.5-.6-.3-1.2-.7-1.6-1.3-.4-.6-.7-1.2-.9-1.9-.2-.8-.3-1.6-.3-2.4V-.9h-5.2v19h5.1v.1zM58.8 18.2v-19h-5.2v19h5.2zm.1 5.8c0-1.5-1.2-2.7-2.7-2.7s-2.7 1.2-2.7 2.7 1.2 2.7 2.7 2.7c1.5 0 2.7-1.2 2.7-2.7zM67.3 3.7c1.8-1.4 4.2-1.5 6.1-.4.6.4 1.1 1 1.4 1.7h4.6c-.7-2.3-1.9-3.9-3.4-4.9-1.7-1-3.6-1.5-5.5-1.5-1.4 0-2.8.2-4 .7-1.2.4-2.2 1.1-3.1 2-.9.9-1.5 2-1.9 3.2-.5 1.3-.7 2.7-.7 4 0 1.4.2 2.7.7 4 .9 2.4 2.7 4.3 5 5.3 1.3.5 2.6.8 4 .8 1.5 0 2.9-.3 4.2-.9 1.2-.6 2.2-1.5 3-2.5.8-1.1 1.4-2.3 1.7-3.6.3-1.4.5-2.8.4-4.2H66.1c-.1-1.7.4-3 1.2-3.7zm5.9 10c-.8.7-1.8 1.1-2.9 1-.7 0-1.4-.1-2.1-.4-.5-.2-1-.6-1.3-1s-.6-.8-.7-1.3c-.1-.4-.2-.8-.2-1.3h8.5c-.2 1.1-.6 2.1-1.3 3zM86.5 18.2v-2.6h.1c.6 1 1.5 1.9 2.6 2.4 1 .5 2.1.7 3.2.8 1.2 0 2.3-.2 3.4-.6.8-.3 1.6-.9 2.1-1.6.5-.7.9-1.6 1.1-2.5.2-1.1.3-2.1.3-3.2V-.8h-5.2V9.9c0 1.6-.2 2.7-.7 3.5s-1.4 1.2-2.6 1.2c-1.4 0-2.5-.4-3.1-1.3-.6-.8-1-2.2-1-4.2v-10h-5.2v19h5v.1zM115.6 1.6c-.6-1-1.4-1.8-2.4-2.2-1.1-.5-2.2-.7-3.4-.7-1.3 0-2.6.3-3.8.8-1.1.5-2 1.3-2.7 2.2-.7 1-1.3 2.1-1.6 3.3-.4 1.2-.5 2.5-.5 3.8s.2 2.5.5 3.7c.3 1.1.9 2.2 1.6 3.2 1.5 2 3.8 3.1 6.3 3 1.1 0 2.2-.2 3.2-.7s1.8-1.2 2.4-2.1h.1v9.5h5.2V-.9h-5l.1 2.5zm-.3 9.4c-.1.7-.4 1.3-.8 1.9-.4.5-.8 1-1.4 1.3-.7.4-1.4.5-2.1.5-.8 0-1.5-.2-2.2-.5-.6-.3-1.1-.8-1.4-1.4-.4-.6-.6-1.2-.8-1.9s-.2-1.5-.2-2.2c0-.7.1-1.5.3-2.2s.4-1.4.8-2c.4-.6.9-1 1.4-1.4.6-.4 1.4-.6 2.1-.5.8 0 1.5.2 2.2.5.6.3 1 .8 1.4 1.4s.6 1.3.7 2c.2.8.2 1.5.2 2.3.1.7 0 1.4-.2 2.2zM127.6 3.9c.2-.4.5-.8.9-1 .4-.3.8-.5 1.3-.6s1-.2 1.5-.2c.4 0 .8 0 1.2.1.4.1.8.2 1.1.4.3.2.6.5.8.8.2.3.3.7.3 1.1 0 .8-.5 1.4-1.6 1.8-1.4.5-2.9.9-4.4 1.2-.8.2-1.5.4-2.2.6-.7.2-1.3.5-1.9.9s-1 .9-1.4 1.4c-.4.6-.5 1.4-.5 2.1 0 1.1.2 2.1.7 3 .5.8 1.1 1.4 1.9 1.8.8.5 1.7.8 2.6 1 1 .2 2 .3 3 .3s2-.1 3-.3c.9-.2 1.8-.5 2.6-1s1.4-1.1 1.9-1.9c.5-.9.9-1.9.9-2.9h-5c0 .8-.4 1.6-1.1 2-.8.4-1.6.6-2.4.6-.3 0-.6 0-1-.1-.3 0-.6-.1-.9-.2-.3-.1-.5-.3-.7-.5-.2-.3-.3-.6-.3-.9 0-.4.2-.8.5-1.1.4-.3.9-.6 1.3-.7.6-.2 1.3-.4 1.9-.5.7-.2 1.4-.3 2.2-.5.7-.2 1.5-.4 2.2-.6s1.3-.6 1.9-1 1-.9 1.4-1.5c.4-.7.5-1.5.5-2.2 0-1.1-.2-2.2-.8-3.1-.5-.8-1.2-1.5-2-2.1-.8-.5-1.8-.9-2.8-1.1s-2.1-.3-3.2-.3-2.2.1-3.2.3c-1 .2-1.9.6-2.8 1.1-1.8 1.1-2.9 3.1-2.9 5.2h5c.2-.5.3-1 .5-1.4zM142.1 19.7c0-.2 0-.5-.1-.7-.1-.2-.2-.4-.4-.6-.2-.2-.4-.3-.6-.4s-.4-.1-.6-.1-.5 0-.7.1-.4.2-.6.4c-.2.2-.3.4-.4.6s-.1.5-.1.7c0 .2 0 .5.1.7.3.6.9 1.1 1.6 1.1.2 0 .5 0 .7-.1s.4-.2.6-.4.3-.4.4-.6c0-.3.1-.5.1-.7zm-.4 0c0 .2 0 .4-.1.6-.1.2-.2.3-.3.5-.1.1-.3.2-.4.3-.2.1-.3.1-.5.1s-.4 0-.6-.1-.3-.2-.4-.3-.2-.3-.3-.5c-.1-.4-.1-.8 0-1.2.1-.2.2-.3.3-.5.3-.3.6-.4 1-.4.2 0 .4 0 .5.1.2.1.3.2.4.3s.2.3.3.5c.1.1.1.3.1.6zm-1.7-1.1h-.3v2h.7c.2 0 .4 0 .5-.1.2-.2.3-.6.1-.8-.1-.1-.2-.1-.4-.1l.6-.9h-.3l-.5.8h-.3l-.1-.9zm.4 1.2H140.7l.1.1V20.2l-.1.1h-.6v-.6l.3.1zM-60.4-20.3c0-2.2 1.7-3 3.6-3 1.2 0 3.2.4 3.2 2 0 1.7-2.4 2-4.8 2.7-2.4.6-4.8 1.6-4.8 4.6 0 3.3 3.1 4.9 6.1 4.9 3.4 0 6.5-1.5 6.5-5.2h-3.5c-.1 2-1.5 2.5-3.2 2.5-1.1 0-2.5-.5-2.5-1.8 0-1.2.8-1.4 4.8-2.5 1.2-.3 4.8-1 4.8-4.7 0-3-2.3-5.2-6.7-5.2-3.6 0-6.9 1.8-6.9 5.8l3.4-.1zM-48.6-17.5c.2 3 2.9 3.9 5.5 3.9 2.3 0 5.1-.5 5.1-3.3v-6.2c-.1-.9.1-1.8.4-2.6h-3.3c-.1.4-.2.7-.2 1.1-1.1-1-2.5-1.5-3.9-1.5-2.2 0-4 1.1-4 3.5 0 2.7 2 3.3 4 3.6s3.8.2 3.8 1.5-1 1.6-2.1 1.6c-1.2 0-2-.5-2.1-1.8l-3.2.2zm7.4-2.4c-.6-.5-1.7-.5-2.7-.7s-1.9-.6-1.9-1.7.9-1.5 2-1.5c2.5 0 2.6 2 2.6 2.7v1.2zM-29.4-25.7H-33L-37-14h3.4l2.5-8 2.5 8h3.2l-4-11.7zM-21.9-20.6c.1-2 1.1-3 2.9-3 1.3 0 2.3.8 2.5 1.5h2.8c-.9-2.8-2.8-3.9-5.5-3.9-3.7 0-6 2.5-6 6.2 0 3.5 2.4 6.2 6 6.2 4 0 5.9-3.4 5.7-7h-8.4zm5.2 2.1c-.3 1.6-1 2.5-2.6 2.5-1.4.1-2.6-1-2.7-2.4v-.1h5.3zM-1.8-12.5h-4.8v3H6.7v-3H1.8v-13.2h-3.6v13.2zM8.2-9.5h3.2v-6.1h.1c.7 1.2 2 1.9 3.4 2 3.4 0 4.3-1.9 4.3-4.8v-7.2H16v6.6c0 1.9-.6 2.9-2.1 2.9-1.7 0-2.5-1-2.5-3.4v-6.2H8.2v16.2zM23.8-20.6c.1-2 1.1-3 2.9-3 1.3 0 2.3.8 2.5 1.5h2.9c-.9-2.8-2.8-3.9-5.5-3.9-3.7 0-6 2.5-6 6.2 0 3.5 2.4 6.2 6 6.2 4 0 5.9-3.4 5.7-7h-8.5zm5.3 2.1c-.3 1.6-1 2.5-2.6 2.5-1.4.1-2.6-1-2.7-2.4v-.1h5.3zM33.8-13.9h3v-1.6c.8 1.2 2.2 1.9 3.6 1.9 1.5 0 2.8-.6 3.4-2 .8 1.2 2.1 1.9 3.5 2 2.5 0 4.3-1.2 4.3-4.2v-7.9h-3.2v6.6c0 1.6-.1 2.9-2 2.9s-2.2-1.5-2.2-3v-6.5H41v6.6c0 1.4.1 2.9-2 2.9-.6 0-2.2-.4-2.2-2.7v-6.8h-3.2v11.8h.2zM64.5-9.5h3.7l6.1-16.2h-3.7l-1.2 3.6h-6.1L62-25.7h-3.6l6.1 16.2zm-.4-9.9h4.2l-2 5.9-2.2-5.9zM74.9-9.5h3.2v-16.2h-3.2v16.2zM80.7-9.5h3.2v-16.2h-3.2v16.2zM91.2-11.8c0-.3-.1-.6-.2-.9-.1-.3-.3-.5-.5-.7s-.5-.4-.7-.5c-.3-.1-.6-.2-.9-.2-.3 0-.6.1-.9.2-.3.1-.5.3-.7.5s-.4.5-.5.7c-.1.3-.2.6-.2.9 0 .3.1.6.2.9.1.3.3.5.5.7s.5.4.7.5c.3.1.6.2.9.2.3 0 .6-.1.9-.2.3-.1.5-.3.7-.5s.4-.5.5-.7c.2-.2.2-.6.2-.9m-.5 0c0 .3 0 .5-.1.8-.1.2-.2.4-.4.6-.2.2-.3.3-.6.4-.2.1-.5.1-.7.1s-.5 0-.7-.1-.4-.2-.6-.4c-.2-.2-.3-.4-.4-.6-.1-.2-.1-.5-.1-.8s0-.5.1-.7.2-.4.4-.6c.2-.2.3-.3.6-.4.2-.1.5-.2.7-.2s.5 0 .7.1.4.2.6.4c.2.2.3.4.4.6.1.3.2.6.1.8m-2.2-1.3h-.4v2.5h1c.2 0 .5 0 .7-.2.2-.1.3-.3.2-.6 0-.2-.1-.4-.2-.5-.1-.1-.3-.2-.5-.2l.7-1.1h-.5l-.7 1.1h-.4l.1-1zm.5 1.4h.2c.1 0 .1 0 .2.1.1 0 .1.1.1.1 0 .1.1.1.1.2s0 .1-.1.2l-.1.1c-.1 0-.1 0-.2.1h-.7v-.7l.5-.1z"/></symbol><symbol id="bfas_x5F_ft" viewBox="-65.1 -26.9 130.2 53.7"><path class="st1" d="M21.8 25.9c.4 0 .9 0 1.3-.1s.7-.2 1-.4.5-.5.7-.8c.2-.4.2-.8.2-1.2 0-.5-.1-.9-.3-1.3-.3-.4-.6-.7-1-.8.6-.1 1.1-.5 1.4-.9.3-.5.5-1 .5-1.6 0-.5-.1-.9-.3-1.3-.2-.4-.5-.7-.8-.9-.3-.2-.7-.4-1.2-.5-.4-.1-.9-.2-1.3-.2h-4.9v10h4.7zm-.3-4.1c.3 0 .7.1 1 .3.3.2.4.6.4.9 0 .2 0 .4-.1.6-.1.1-.2.3-.3.4-.2.1-.3.1-.5.2-.2 0-.4.1-.6.1h-2.1v-2.4l2.2-.1zm.1-4.3c.2 0 .4 0 .6.1.2 0 .4.1.5.2.2.1.3.2.4.4.1.2.1.4.1.7 0 .4-.1.8-.4 1.1-.3.2-.8.4-1.2.3h-2.4v-2.8h2.4zM28.5 17.5c.7-.5 1.6-.6 2.3-.1.2.1.4.4.5.6h1.8c-.2-.8-.7-1.4-1.3-1.9-.6-.4-1.4-.6-2.1-.6-.5 0-1.1.1-1.6.3-.4.2-.8.4-1.2.8-.3.4-.6.8-.7 1.2-.2.5-.3 1-.3 1.6 0 .5.1 1 .3 1.5.2.5.4.9.8 1.2.3.3.7.6 1.2.8.5.2 1 .3 1.5.3.6 0 1.1-.1 1.6-.4.5-.2.8-.6 1.1-1 .3-.4.5-.9.6-1.4s.2-1.1.1-1.6h-5.3c.1-.4.3-.9.7-1.3zm2.2 3.9c-.3.3-.7.4-1.1.4-.3 0-.6 0-.8-.2-.2-.1-.4-.2-.5-.4-.1-.1-.2-.3-.2-.5s-.1-.3-.1-.5h3.3c-.1.5-.3.8-.6 1.2zM35.7 17.5c.1-.2.2-.3.3-.4.1-.1.3-.2.5-.2s.4-.1.6-.1.3 0 .5.1c.1 0 .3.1.4.2l.3.3c.1.1.1.3.1.5 0 .3-.2.5-.6.7-.6.2-1.1.3-1.7.5-.3.1-.6.1-.9.2s-.5.2-.7.4c-.2.1-.4.3-.5.6-.1.2-.2.5-.2.8 0 .4.1.8.3 1.2.2.3.4.5.7.7.3.2.7.3 1 .4.4.1.8.1 1.2.1.4 0 .8 0 1.2-.1.4-.1.7-.2 1-.4.3-.2.5-.4.7-.7s.3-.7.3-1.1h-1.9c0 .3-.2.6-.4.8-.3.1-.6.2-.9.2h-.4c-.1 0-.2 0-.4-.1-.1 0-.2-.1-.3-.2-.1-.1-.1-.2-.1-.4s.1-.3.2-.4c.2-.1.3-.2.5-.3s.5-.1.7-.2l.8-.2c.3-.1.6-.1.9-.2.3-.1.5-.2.7-.4.2-.2.4-.4.5-.6.1-.3.2-.6.2-.9 0-.4-.1-.8-.3-1.2-.2-.3-.4-.6-.8-.8-.3-.2-.7-.3-1.1-.4-.4-.1-.8-.1-1.2-.1-.4 0-.8 0-1.3.1-.4.1-.8.2-1.1.4-.3.2-.6.5-.8.8-.2.4-.3.8-.3 1.2h1.9c.2-.3.3-.5.4-.8zM45.1 23.1v-1.4h-1.5v-3.6c0-.2 0-.5.2-.7.2-.1.4-.2.7-.2h.6v-1.6c-.2 0-.4 0-.6-.1h-.6c-.3 0-.6 0-.9.1-.3 0-.5.1-.7.3-.2.1-.4.3-.5.5-.1.3-.2.6-.2.9v4.5h-1.2v1.3h1.2v2.2h2V23s1.5 0 1.5.1zM24.1 12.4v-1.9h-4.9V8.2h4.3V6.5h-4.3V2.3H17v10.1h7.1zM26.6 9.6V8.2c.1.2.2.4.4.6.2.2.3.4.6.5.2.1.4.2.7.3.2.1.5.1.7.1s.3 0 .4-.1V7.9h-.7c-.3 0-.6-.1-.9-.2-.2-.1-.5-.3-.6-.5-.2-.2-.3-.5-.3-.7-.1-.3-.1-.6-.1-.9V2.2h-2v7.4h1.8zM29.8 10.6v1.7h2v-1.7h-2zm2-1V2.2h-2v7.3l2 .1zM35.1 4c.4-.3.8-.5 1.3-.4.4 0 .7.1 1 .3.3.1.4.4.5.6h1.8c-.2-.8-.7-1.4-1.3-1.9-.6-.4-1.4-.6-2.1-.6-.5 0-1.1.1-1.6.3-.4.2-.8.4-1.2.8-.3.4-.6.8-.8 1.2-.2.5-.3 1-.3 1.6 0 .5.1 1 .3 1.5.2.5.4.9.8 1.2.3.3.7.6 1.2.8.5.2 1 .3 1.5.3.6 0 1.1-.1 1.6-.4.5-.2.8-.6 1.1-1 .3-.4.5-.9.6-1.4s.2-1.1.1-1.6h-5.3c.3-.4.4-.9.8-1.3zm2.3 3.9c-.3.3-.7.4-1.1.4-.3 0-.5 0-.8-.2-.2-.1-.4-.2-.5-.4-.1-.2-.2-.3-.3-.5 0-.2-.1-.3-.1-.5h3.3c-.1.4-.3.9-.5 1.2zM42.5 9.6v-1c.2.4.6.7 1 .9.4.2.8.3 1.3.3s.9-.1 1.3-.2c.3-.1.6-.3.8-.6.2-.3.3-.6.4-1s.1-.8.1-1.2V2.2h-2v4.2c0 .5-.1.9-.3 1.4-.2.3-.6.5-1 .4-.5 0-.9-.1-1.2-.5-.3-.5-.4-1.1-.4-1.6V2.2h-2v7.3s2 0 2 .1zM53.7 3.1c-.2-.4-.5-.7-.9-.9-.4-.2-.9-.2-1.3-.2-.5 0-1 .1-1.4.3-.4.2-.8.5-1 .9-.3.4-.5.8-.6 1.3s-.2 1-.2 1.5.1 1 .2 1.4.3.9.6 1.2c.6.8 1.5 1.2 2.4 1.2.4 0 .9-.1 1.2-.3.4-.2.7-.5.9-.8v3.7h2V2.3h-1.9v.8zm0 3.7c0 .3-.1.5-.3.7-.1.2-.3.4-.5.5-.3.1-.5.2-.8.2s-.6-.1-.8-.2c-.2-.1-.4-.3-.5-.5s-.2-.5-.3-.7c-.1-.3-.1-.6-.1-.9s0-.6.1-.8c.1-.3.2-.5.3-.8.1-.2.3-.4.6-.5.2-.1.5-.2.8-.2s.6.1.8.2c.2.1.4.3.5.5s.2.5.3.8c.1.3.1.6.1.9-.2.1-.2.5-.2.8zM58.4 4.1c.1-.2.2-.3.3-.4.1-.1.3-.2.5-.2s.4-.1.6-.1.3 0 .5.1c.1 0 .3.1.4.2l.3.3c.1.1.1.3.1.5 0 .3-.2.5-.6.7-.6.2-1.1.3-1.7.5-.3.1-.6.1-.9.2s-.5.2-.7.4c-.2.1-.4.3-.5.6-.1.2-.2.5-.2.8 0 .4.1.8.3 1.2.2.3.4.5.7.7.3.2.7.3 1 .4.4.1.8.1 1.2.1.4 0 .8 0 1.2-.1.4-.1.7-.2 1-.4.3-.2.5-.4.7-.7.2-.3.3-.7.3-1.1h-1.8c0 .3-.2.6-.4.8-.3.1-.6.2-.9.2h-.4c-.1 0-.2 0-.4-.1-.1 0-.2-.1-.3-.2-.1-.1-.1-.2-.1-.4s.1-.3.2-.4c.2-.1.3-.2.5-.3.2-.1.5-.1.7-.2.3-.1.6-.1.8-.2.3-.1.6-.1.9-.2s.5-.2.7-.4c.2-.2.4-.4.5-.6.1-.3.2-.6.2-.9 0-.8-.4-1.6-1.1-2-.3-.2-.7-.3-1.1-.4s-.8-.1-1.2-.1c-.4 0-.8 0-1.3.1-.4.1-.8.2-1.1.4-.3.2-.6.5-.8.8-.2.4-.3.8-.3 1.2h1.9c.2-.5.2-.7.3-.8zM22.1-.5l3.8-10.2h-2.3l-.8 2.3H19l-.8-2.3H16L19.8-.5h2.3zm.1-6.4-1.3 3.7-1.3-3.7h2.6z"/><path class="st1" d="M27.9-3.4v-1c.2.4.6.7 1 .9.4.2.8.3 1.2.3.5 0 .9-.1 1.3-.2.3-.1.6-.3.8-.6.2-.3.3-.6.4-.9.1-.4.1-.8.1-1.2v-4.5h-2v4.2c0 .5-.1.9-.3 1.4-.2.3-.6.5-1 .5s-.9-.1-1.2-.5c-.3-.5-.4-1-.4-1.6v-3.9h-2v7.3h2.1v-.2zM34-2.2v1.7h2v-1.7h-2zm2-1.2v-7.3h-2v7.3h2zM39.1-3.4v-1c.2.4.6.7 1 .9.4.2.8.3 1.3.3.4 0 .9-.1 1.3-.3.4-.2.7-.5.9-1 .2.3.5.6.9.9s.9.4 1.3.4.7 0 1.1-.1c.3-.1.6-.2.9-.5.2-.2.4-.5.6-.8.1-.4.2-.8.2-1.2v-4.9h-2v4.9c0 .2-.1.4-.2.6-.1.1-.2.2-.4.3-.2.1-.4.2-.7.1-.2 0-.5 0-.7-.2-.2-.1-.3-.3-.4-.4-.1-.2-.2-.4-.2-.6 0-.2-.1-.4-.1-.7v-4.1h-2V-6.1c0 .2 0 .4-.1.6-.1.2-.2.3-.4.4-.2.1-.5.2-.7.2-.1 0-.3 0-.4-.1-.2 0-.3-.1-.5-.2s-.3-.3-.4-.5c-.1-.3-.2-.6-.2-.9v-4.3h-2v7.3h1.9v.2zM49.8-4.4c.2.3.5.6.8.8.3.2.7.3 1.1.4s.8.1 1.2.1c.4 0 .8 0 1.1-.1.4 0 .7-.1 1-.3.3-.1.6-.4.8-.6.2-.3.3-.7.3-1.1v-3.9c0-.3 0-.6.1-1 0-.2.1-.5.2-.7h-2.1c0 .1-.1.2-.1.3v.4c-.3-.3-.7-.6-1.1-.7-.4-.1-.9-.2-1.3-.2-.3 0-.7 0-1 .1s-.6.2-.8.4c-.2.2-.4.4-.5.7s-.2.6-.2 1 .1.7.2 1 .3.5.6.6c.2.2.5.3.8.4.3.1.6.1.9.2.3 0 .6.1.9.1s.5.1.8.1c.2 0 .4.1.5.2.1.1.2.3.2.5s0 .4-.1.5-.2.1-.3.2c-.1.1-.3.1-.4.1h-.5c-.3 0-.7-.1-.9-.3-.2-.2-.4-.5-.4-.9h-2c-.2.9 0 1.2.2 1.7zm4-3c-.1 0-.3-.1-.4-.1s-.3-.1-.5-.1-.3 0-.5-.1c-.2 0-.3-.1-.5-.1-.1 0-.3-.1-.4-.2l-.3-.3c-.1-.1-.1-.3-.1-.5s0-.3.1-.5l.3-.3c.1-.1.3-.1.4-.1h.5c.3 0 .6.1.9.2.2.1.4.3.5.5s.2.5.2.7v1.2c0-.1-.1-.1-.2-.3zM59.3-.5v-10.2h-2V-.5h2zM18.7-21.7c.1-.2.3-.4.5-.6.2-.2.5-.3.7-.3.3-.1.6-.1.9-.1.2 0 .4 0 .6.1.2 0 .4.1.6.2.2.1.4.2.5.4s.2.4.2.6c0 .3-.1.5-.3.7-.2.2-.4.3-.7.4-.3.1-.6.2-1 .3s-.7.2-1.1.3-.7.2-1.1.3c-.3.1-.7.3-1 .5-.6.5-1 1.2-1 2 0 .5.1.9.3 1.4.2.4.5.7.9 1s.8.5 1.2.6c.4.1.9.2 1.4.2s1-.1 1.5-.2.9-.3 1.3-.6.7-.6.9-1c.2-.5.4-1 .3-1.5h-2.2c0 .3-.1.5-.2.8-.1.2-.2.4-.4.5-.2.1-.4.2-.6.2-.3 0-.5.1-.8.1-.2 0-.4 0-.5-.1-.2 0-.3-.1-.5-.2-.1-.1-.3-.2-.4-.4s-.2-.3-.1-.5c0-.2 0-.3.1-.5s.3-.3.4-.3l.9-.3c.4-.1.9-.2 1.5-.4.2 0 .5-.1.8-.2.4-.1.7-.3 1-.5s.6-.5.9-.9.4-.9.4-1.4c0-.4-.1-.9-.3-1.3-.2-.4-.5-.8-.8-1-.4-.3-.8-.5-1.3-.7-.6-.2-1.2-.2-1.8-.2-.5 0-1.1.1-1.6.2s-1 .3-1.4.6-.7.7-1 1.1c-.2.5-.4 1.1-.3 1.6h2.2c.2-.3.3-.6.4-.9zM25.6-19.1c.3.9 1 1.7 2 2 .5.2 1 .3 1.6.3.5 0 1.1-.1 1.6-.3s.9-.4 1.2-.8c.3-.3.6-.8.8-1.2.2-.5.3-1.1.3-1.6s-.1-1.1-.3-1.6c-.2-.5-.4-.9-.8-1.2-.3-.3-.7-.6-1.2-.8s-1-.3-1.6-.3c-.5 0-1.1.1-1.6.3-.4.2-.8.4-1.2.8-.3.3-.6.8-.8 1.2-.2.5-.3 1.1-.3 1.6 0 .6.1 1.1.3 1.6zm1.8-2.3c.1-.3.2-.5.3-.8.1-.2.3-.4.5-.5.3-.1.6-.2.9-.2s.6.1.9.2c.2.1.4.3.6.5.1.2.2.5.3.8.1.3.1.6.1.9 0 .3 0 .6-.1.9 0 .3-.1.5-.3.8-.1.2-.3.4-.6.5-.3.1-.6.2-.9.2-.6 0-1.1-.3-1.4-.7-.1-.2-.2-.5-.3-.8-.1-.3-.1-.6-.1-.9 0-.4 0-.6.1-.9zM37.2-18.2c-.3 0-.6-.1-.8-.2-.2-.1-.4-.3-.5-.6-.1-.2-.2-.5-.3-.8-.1-.3-.1-.6-.1-.8 0-.3 0-.5.1-.8s.1-.5.3-.7c.1-.2.3-.4.5-.5s.5-.2.8-.2c.4 0 .8.1 1.1.4.3.3.4.7.5 1.1h2c-.1-.9-.5-1.7-1.1-2.2-.7-.5-1.5-.8-2.4-.8-.5 0-1 .1-1.5.3-.4.2-.8.4-1.2.8-.3.3-.6.7-.8 1.2-.2.5-.3 1-.3 1.5s.1 1.1.2 1.6c.2.5.4.9.7 1.3.3.4.7.6 1.2.8s1 .3 1.6.3c.4 0 .9-.1 1.3-.2s.8-.3 1.1-.5c.3-.2.6-.5.8-.9.2-.4.3-.8.3-1.2h-2c0 .7-.6 1.3-1.4 1.3 0-.2 0-.2-.1-.2zM41.4-15.7v1.6h2v-1.7h-2v.1zm2.1-1.2v-7.3h-2v7.3h2zM46.7-22.6c.4-.3.8-.5 1.3-.4.4 0 .7.1 1 .3.2.1.4.4.5.6h1.8c-.2-.8-.7-1.4-1.3-1.9-.6-.4-1.4-.6-2.1-.6-.5 0-1.1.1-1.6.3-.4.2-.8.4-1.2.8-.3.4-.6.8-.7 1.2-.2.5-.3 1-.3 1.6 0 .5.1 1 .3 1.5.2.5.4.9.8 1.2.3.3.7.6 1.2.8s1 .3 1.5.3c.6 0 1.1-.1 1.6-.4.5-.2.8-.6 1.1-1 .3-.4.5-.9.6-1.4s.2-1.1.1-1.6H46c.2-.3.4-.8.7-1.3zm2.3 4c-.3.3-.7.4-1.1.4-.3 0-.6 0-.8-.2-.2-.1-.4-.2-.5-.4s-.2-.3-.3-.5c0-.2-.1-.3-.1-.5h3.3c-.1.4-.2.9-.5 1.2zM56.2-16.9v-1.4h-1.5v-3.6c-.1-.4.1-.7.4-.9h1v-1.6c-.2 0-.4-.1-.6-.1h-.4c-.3 0-.6 0-.9.1-.3 0-.5.1-.7.2-.2.1-.4.3-.5.5-.1.3-.2.6-.2.9v4.3h-1.2v1.4h1.2v2.2h2v-2.2l1.4.2zM60-26.4c-.5-.3-1.1-.4-1.6-.4h-.6l-.6.1v1.6l.6-.1h.6c.2 0 .4.1.6.3.1.2.2.4.2.6 0 .2 0 .3-.1.5l-2.6 6.9h2.1l1.7-5 1.6 5H64l-3.1-8.3c-.1-.4-.5-.9-.9-1.2zM4.7-24.4h1.2v51.3H4.7zM-48.5 15.5c2.7 0 5 2.5 5 5.6s-2.2 5.6-5 5.6-5-2.5-5-5.6 2.3-5.6 5-5.6zM-20.9 15.5c2.7 0 5 2.5 5 5.6s-2.2 5.6-5 5.6c-2.7 0-5-2.5-5-5.6s2.3-5.6 5-5.6zM-10.3-5.9c-3.5-6.1-9.4-10.2-16.8-8.6 4.5 4.3 7.8 10.6 8.1 20-4 2.9-9.8 4.7-15.7 4.7-5.9 0-11.6-1.9-15.6-4.7.3-9.3 3.6-15.6 8.1-20-7.3-1.6-13.2 2.4-16.7 8.4l-6.2-4.4c6.5-11.4 19.8-13.7 30.4-9 10.7-4.8 24.1-2.4 30.6 9.2l-6.2 4.4zm-24.4-5c-3.9 3.2-6.4 7.8-6.9 12.8 1.4.8 4.1 1.5 6.9 1.5s5.5-.7 6.9-1.5c-.6-4.9-3-9.5-6.9-12.8zM65.1-16.1c0-.2-.1-.3-.2-.5-.1-.1-.1-.1-.2-.1h-.2c-.1 0-.2 0-.3.1-.1 0-.1.1-.2.1-.1.1-.1.1-.1.2v.3c0 .1 0 .2.1.3 0 .1.1.1.1.2.1.1.1.1.2.1.2.1.3.1.5 0 .1 0 .1-.1.2-.1.1-.1.1-.1.1-.2v-.4zm-.1 0v.2c0 .1-.1.1-.1.2 0 0-.1.1-.2.1h-.4c-.1 0-.1-.1-.2-.1 0 0-.1-.1-.1-.2v-.4c0-.1.1-.1.1-.2 0 0 .1-.1.2-.1h.4c.1 0 .1.1.2.1 0 0 .1.1.1.2-.1.1 0 .1 0 .2zm-.7-.5h-.1v.7h.5s.1-.1.1-.2 0-.1-.1-.1c0 0-.1 0-.1-.1l.2-.3h-.1l-.2.3h-.1l-.1-.3zm.2.5h.1v.2h-.2v-.2h.1z"/></symbol><symbol id="bfas_x5F_mob" viewBox="-95.8 -26.9 191.5 53.8"><g id="Layer_2_3_"><g id="Layer_1-2_2_"><path class="st2" d="M-77.3 14.5c3 0 5.5 2.8 5.5 6.2 0 3.4-2.4 6.2-5.5 6.2s-5.5-2.8-5.5-6.2 2.5-6.2 5.5-6.2M-46.8 14.5c3 0 5.5 2.8 5.5 6.2 0 3.4-2.4 6.2-5.5 6.2s-5.5-2.8-5.5-6.2 2.5-6.2 5.5-6.2M-35.2-8.9c-3.8-6.7-10.3-11.3-18.6-9.5 5 4.8 8.6 11.7 8.9 22-4.4 3.2-10.8 5.2-17.3 5.3S-75 6.8-79.5 3.6c.4-10.3 3.9-17.3 8.9-22-8.1-1.7-14.5 2.7-18.4 9.2l-6.8-4.9C-88.6-26.7-74-29.2-62.2-24c11.9-5.3 26.6-2.7 33.7 10.2l-6.7 4.9zm-26.9-5.6c-4.3 3.5-7 8.6-7.6 14.1 1.5.9 4.5 1.6 7.6 1.6s6.1-.7 7.6-1.6c-.6-5.5-3.3-10.5-7.6-14.1M-26.6-11.5c0-.2 0-.3-.1-.5-.1-.3-.4-.5-.7-.7-.3-.1-.6-.1-1 0-.1.1-.3.1-.4.3-.1.1-.2.2-.2.4-.1.2-.1.3-.1.5s0 .3.1.5c.1.1.2.3.3.4.1.1.2.2.4.2.3.1.6.1.9 0 .1-.1.3-.1.4-.2.1-.1.2-.2.3-.4 0-.2.1-.4.1-.5m-.3 0c0 .1 0 .3-.1.4 0 .1-.1.2-.2.3-.2.2-.4.3-.7.3-.1 0-.3 0-.4-.1-.1 0-.2-.1-.3-.2-.1-.1-.2-.2-.2-.3-.1-.1-.1-.3-.1-.4 0-.1 0-.3.1-.4 0-.1.1-.2.2-.3s.2-.2.3-.2c.4-.2.8-.1 1.1.2.1.1.2.2.2.3.1.1.1.2.1.4m-1.2-.8h-.2v1.4h.5c.1 0 .3 0 .4-.1s.1-.2.1-.3 0-.2-.1-.3-.2-.1-.3-.1l.4-.6h-.3l-.3.6h-.2v-.6zm.3.8h.2s.1 0 .1.1v.2l-.1.1h-.5v-.4h.3zM-19.4 26.9h10.9c4.4 0 7.4-1.4 7.4-5.7.1-2.1-1.2-4-3.1-4.8 2.8-.8 4.2-3 4.2-5.9 0-4.7-4-6.7-8.2-6.7h-11.2v23.1zm5.1-9.3h5.1c1.8 0 3.1.8 3.1 2.8 0 2.2-1.7 2.6-3.5 2.6h-4.8l.1-5.4zm0-9.9h5.4c2 0 3.8.7 3.8 3S-6.6 14-8.8 14h-5.5V7.7zM6.7 11c.1-2.9 1.6-4.2 4.1-4.2 1.8 0 3.3 1.1 3.6 2.2h4c-1.3-3.9-4-5.6-7.8-5.6-5.3 0-8.5 3.6-8.5 8.8 0 5 3.5 8.8 8.5 8.8 5.7 0 8.4-4.8 8.1-9.9l-12-.1zm7.4 3c-.4 2.3-1.4 3.6-3.7 3.6-2 .1-3.7-1.4-3.8-3.4v-.1h7.5V14zM25 9.2c0-2 1.7-2.8 3.5-2.8 1.3 0 3 .5 3 2.1 0 1.4-1.9 1.9-5.3 2.6-2.6.6-5.3 1.5-5.3 4.5 0 4.3 3.7 5.4 7.3 5.4s7-1.2 7.4-5.3h-4.4c-.1 1.8-1.5 2.3-3.1 2.3-1 0-2.6-.2-2.6-1.6 0-1.6 2.6-1.9 5.2-2.5S36 12.3 36 9.2c0-4.4-3.8-5.8-7.6-5.8s-7.7 1.5-7.9 5.9l4.5-.1zM44.7 20.5h3.4v-3.1h-3.4V9.1c0-1.5.4-2 2-2 .5 0 1 0 1.4.1V3.6c-.9-.1-1.8-.2-2.7-.2-2.8 0-5.3.7-5.3 4v10h-2.8v3.1h2.8v5h4.6v-5zM-19.4-3.3h16.3v-4.3h-11.2v-5.3h9.7v-3.9h-9.7v-9.6h-5.1v23.1zM-.7-9.7h4.4v-3.1h.1c.9 2.1 3 3.5 5.3 3.6.3 0 .7-.1 1-.2v-4.2c-.5.1-1.1.2-1.6.2-3.4 0-4.5-2.4-4.5-5.4v-7.6H-.6v16.7h-.1zM16.6-7.1H12v3.8h4.6v-3.8zM12-9.7h4.6v-16.7H12v16.7zM24-19.2c.1-2.9 1.6-4.2 4.1-4.2 1.8 0 3.3 1.1 3.6 2.2h4.1c-1.3-3.9-4.1-5.6-7.8-5.6-5.3 0-8.5 3.6-8.5 8.8 0 5 3.5 8.8 8.5 8.8 5.7 0 8.4-4.8 8.1-9.9L24-19.2zm7.5 3c-.4 2.3-1.4 3.6-3.7 3.6-2 .1-3.7-1.4-3.8-3.4v-.1l7.5-.1zM38.8-9.7h4.4V-12h.1c1.1 1.8 3 2.8 5.1 2.8 4.9 0 6.1-2.8 6.1-6.9v-10.3h-4.6v9.5c0 2.8-.8 4.1-2.9 4.1-2.5 0-3.6-1.4-3.6-4.8v-8.8h-4.6v16.7zM70-24.3c-1.1-1.8-3-2.6-5.1-2.6-5 0-7.5 4.3-7.5 9 0 4.5 2.5 8.7 7.4 8.7 2 .1 3.8-.9 5-2.5h.1v8.4h4.6v-23.1H70v2.1zm-4 11.6c-3 0-4.1-2.6-4.1-5.3 0-2.6 1.2-5.4 4.1-5.4 3 0 3.9 2.6 3.9 5.4 0 2.8-1 5.3-3.9 5.3zM81.4-21c0-2 1.7-2.8 3.5-2.8 1.3 0 3 .5 3 2.1 0 1.4-1.9 1.9-5.2 2.6-2.6.6-5.3 1.5-5.3 4.5 0 4.3 3.7 5.4 7.3 5.4s7-1.2 7.4-5.3h-4.4c-.1 1.8-1.5 2.3-3.1 2.3-1 0-2.6-.2-2.6-1.6 0-1.6 2.6-1.9 5.2-2.5s5.3-1.6 5.3-4.7c0-4.4-3.8-5.8-7.6-5.8s-7.7 1.5-7.9 5.9l4.4-.1zM95.7-12.5c0-.2 0-.5-.1-.7s-.2-.4-.4-.5-.3-.3-.5-.3c-.2-.1-.4-.1-.7-.1-.2 0-.4 0-.7.1-.2.1-.4.2-.5.4s-.3.3-.3.5c-.1.2-.1.4-.1.7 0 .2 0 .5.1.7s.2.4.4.5.3.3.5.3c.2.1.4.1.7.1.4 0 .9-.2 1.2-.5.2-.2.3-.3.4-.5-.1-.3 0-.5 0-.7m-.4-.1c0 .2 0 .4-.1.6-.1.2-.2.3-.3.4-.1.1-.3.2-.4.3-.2.1-.3.1-.5.1s-.4 0-.5-.1c-.2-.1-.3-.2-.4-.3-.1-.1-.2-.3-.3-.4-.1-.2-.1-.4-.1-.6 0-.2 0-.4.1-.5.1-.2.1-.3.3-.4.2-.3.6-.4 1-.4.2 0 .3 0 .5.1s.3.2.4.3c.1.1.2.3.3.4v.5m-1.6-.9h-.3v1.9h.7c.2 0 .4 0 .5-.1s.2-.3.2-.4c0-.1 0-.3-.1-.4-.1-.1-.2-.1-.3-.1l.5-.8h-.4l-.5.8h-.3v-.9zm.3 1H94.3s.1 0 .1.1V-12.1l-.1.1h-.6v-.5h.3z"/></g></g></symbol><use xlink:href="#bfas_x5F_ft" width="130.2" height="53.7" x="-65.1" y="-26.9" transform="matrix(1 0 0 -1 355.9 26.85)" style="overflow:visible"/><use xlink:href="#bfas_x5F_mob" width="191.5" height="53.8" x="-95.8" y="-26.9" transform="matrix(1 0 0 -1 520.95 27.4)" style="overflow:visible"/><use xlink:href="#bfas_x5F_dsk" width="284.2" height="53.4" x="-142.1" y="-26.7" transform="matrix(1 0 0 -1 142.1 26.893)" style="overflow:visible"/></svg>