<svg id="Layer_1" data-name="Layer 1" xmlns="http://www.w3.org/2000/svg" viewBox="0 0 443 92.35"><defs><style>.cls-1{fill:#f58220;}</style></defs><path class="cls-1" d="M31.24,22.72c4.65,0,8.43-4.26,8.43-9.53s-3.78-9.53-8.43-9.53-8.43,4.27-8.43,9.53,3.77,9.53,8.43,9.53" transform="translate(-3 -1.74)"/><path class="cls-1" d="M78.22,22.72c4.65,0,8.43-4.26,8.43-9.53s-3.78-9.53-8.43-9.53-8.43,4.27-8.43,9.53,3.78,9.53,8.43,9.53" transform="translate(-3 -1.74)"/><path class="cls-1" d="M96.17,58.84c-5.94,10.35-15.94,17.4-28.59,14.67,7.72-7.33,13.21-18.1,13.77-33.92-6.84-4.87-16.62-8-26.62-8s-19.79,3.16-26.62,8c.55,15.82,6,26.58,13.76,33.91-12.48,2.69-22.38-4.13-28.35-14.25L3,66.78C14.08,86.22,36.59,90.11,54.73,82.06c18.26,8.11,41,4.11,52-15.68Zm-41.44,8.6a32.69,32.69,0,0,1-11.67-21.8c2.3-1.37,6.92-2.48,11.67-2.48s9.36,1.11,11.66,2.48a32.64,32.64,0,0,1-11.66,21.8" transform="translate(-3 -1.74)"/><path class="cls-1" d="M31.24,22.72c4.65,0,8.43-4.26,8.43-9.53s-3.78-9.53-8.43-9.53-8.43,4.27-8.43,9.53,3.77,9.53,8.43,9.53" transform="translate(-3 -1.74)"/><path class="cls-1" d="M78.22,22.72c4.65,0,8.43-4.26,8.43-9.53s-3.78-9.53-8.43-9.53-8.43,4.27-8.43,9.53,3.78,9.53,8.43,9.53" transform="translate(-3 -1.74)"/><path class="cls-1" d="M96.17,58.84c-5.94,10.35-15.94,17.4-28.59,14.67,7.72-7.33,13.21-18.1,13.77-33.92-6.84-4.87-16.62-8-26.62-8s-19.79,3.16-26.62,8c.55,15.82,6,26.58,13.76,33.91-12.48,2.69-22.38-4.13-28.35-14.25L3,66.78C14.08,86.22,36.59,90.11,54.73,82.06c18.26,8.11,41,4.11,52-15.68Zm-41.44,8.6a32.69,32.69,0,0,1-11.67-21.8c2.3-1.37,6.92-2.48,11.67-2.48s9.36,1.11,11.66,2.48a32.64,32.64,0,0,1-11.66,21.8" transform="translate(-3 -1.74)"/><path class="cls-1" d="M109.29,62.87a2,2,0,0,1-.15.78,1.91,1.91,0,0,1-.4.6,1.9,1.9,0,0,1-2.65,0,1.76,1.76,0,0,1-.38-.6,2,2,0,0,1-.14-.75,1.92,1.92,0,0,1,.15-.77,1.6,1.6,0,0,1,.41-.6,1.79,1.79,0,0,1,.59-.39,2,2,0,0,1,.72-.14,1.86,1.86,0,0,1,.7.14,1.73,1.73,0,0,1,.6.39,1.71,1.71,0,0,1,.4.6,1.92,1.92,0,0,1,.15.77m-.41,0a1.81,1.81,0,0,0-.1-.63,1.53,1.53,0,0,0-.32-.5,1.28,1.28,0,0,0-.45-.32,1.38,1.38,0,0,0-.57-.11,1.4,1.4,0,0,0-.58.11,1.23,1.23,0,0,0-.46.32,1.51,1.51,0,0,0-.31.5,1.81,1.81,0,0,0-.11.63,1.74,1.74,0,0,0,.1.61,1.46,1.46,0,0,0,.29.5,1.39,1.39,0,0,0,.46.33,1.33,1.33,0,0,0,.61.13,1.56,1.56,0,0,0,.57-.11,1.45,1.45,0,0,0,.45-.33,1.49,1.49,0,0,0,.32-.49,1.83,1.83,0,0,0,.1-.64M107.06,64h-.34v-2.1h.79a.94.94,0,0,1,.58.14.55.55,0,0,1,.19.46.54.54,0,0,1-.16.42.68.68,0,0,1-.39.15l.59.93h-.39l-.54-.9h-.33Zm.39-1.2h.18a.43.43,0,0,0,.16,0,.19.19,0,0,0,.1-.1.29.29,0,0,0,0-.17.25.25,0,0,0,0-.16l-.11-.08a.33.33,0,0,0-.14,0h-.58v.61Z" transform="translate(-3 -1.74)"/><path class="cls-1" d="M446,62.87a2,2,0,0,1-.15.78,1.94,1.94,0,0,1-.41.6,1.81,1.81,0,0,1-.59.38,1.88,1.88,0,0,1-2.05-.41,1.76,1.76,0,0,1-.38-.6,2,2,0,0,1-.14-.75,1.92,1.92,0,0,1,.15-.77,1.71,1.71,0,0,1,.4-.6,1.73,1.73,0,0,1,.6-.39,1.87,1.87,0,0,1,1.42,0,1.69,1.69,0,0,1,.59.39,1.73,1.73,0,0,1,.41.6,1.92,1.92,0,0,1,.15.77m-.41,0a1.61,1.61,0,0,0-.11-.63,1.51,1.51,0,0,0-.31-.5,1.23,1.23,0,0,0-.46-.32,1.35,1.35,0,0,0-.57-.11,1.38,1.38,0,0,0-.57.11,1.36,1.36,0,0,0-.47.32,1.48,1.48,0,0,0-.3.5,1.61,1.61,0,0,0-.11.63,2,2,0,0,0,.09.61,1.48,1.48,0,0,0,.3.5,1.35,1.35,0,0,0,.45.33,1.39,1.39,0,0,0,.61.13,1.52,1.52,0,0,0,.57-.11,1.39,1.39,0,0,0,.46-.33,1.46,1.46,0,0,0,.31-.49,1.62,1.62,0,0,0,.11-.64M443.77,64h-.34v-2.1h.79a.92.92,0,0,1,.57.14.53.53,0,0,1,.2.46.54.54,0,0,1-.16.42.74.74,0,0,1-.39.15L445,64h-.4l-.54-.9h-.32Zm.38-1.2h.19a.33.33,0,0,0,.15,0,.21.21,0,0,0,.11-.1.29.29,0,0,0,0-.17.25.25,0,0,0,0-.16l-.11-.08a.37.37,0,0,0-.15,0h-.57v.61Z" transform="translate(-3 -1.74)"/><path class="cls-1" d="M139.13,4.19a20.78,20.78,0,0,1,4.42.43A9.38,9.38,0,0,1,147,6a6.49,6.49,0,0,1,2.21,2.59,9.07,9.07,0,0,1,.79,4,7.42,7.42,0,0,1-1.17,4.28,8.39,8.39,0,0,1-3.44,2.79A8.16,8.16,0,0,1,150,22.82a9.36,9.36,0,0,1,1.55,5.43,9.27,9.27,0,0,1-1,4.44,8.7,8.7,0,0,1-2.68,3.06,11.71,11.71,0,0,1-3.84,1.75,17.33,17.33,0,0,1-4.44.57H123.19V4.19Zm-.94,13.72a5.37,5.37,0,0,0,3.27-.95,3.59,3.59,0,0,0,1.28-3.09,4,4,0,0,0-.42-1.94,3.28,3.28,0,0,0-1.15-1.19,4.86,4.86,0,0,0-1.63-.59,11,11,0,0,0-1.92-.17h-7v7.93Zm.42,14.37a10.08,10.08,0,0,0,2.09-.21,5.21,5.21,0,0,0,1.76-.71A3.77,3.77,0,0,0,143.67,30a4.69,4.69,0,0,0,.45-2.19,4.37,4.37,0,0,0-1.47-3.72A6.24,6.24,0,0,0,138.76,23h-8.12v9.3Z" transform="translate(-3 -1.74)"/><path class="cls-1" d="M161.44,32.18a6.88,6.88,0,0,0,7.87.46,4.19,4.19,0,0,0,1.81-2.16h5.93a11.31,11.31,0,0,1-4.36,6.32,12.93,12.93,0,0,1-7.12,1.89,14.11,14.11,0,0,1-5.22-.92,10.94,10.94,0,0,1-3.94-2.64,11.73,11.73,0,0,1-2.49-4.08,14.82,14.82,0,0,1-.88-5.22,14.32,14.32,0,0,1,.9-5.12,11.86,11.86,0,0,1,2.56-4.11,12.29,12.29,0,0,1,4-2.73,12.83,12.83,0,0,1,5.11-1A11.62,11.62,0,0,1,171,14.09a10.68,10.68,0,0,1,3.82,3.25A13.24,13.24,0,0,1,177,22a17.32,17.32,0,0,1,.48,5.46h-17.7Q159.92,30.72,161.44,32.18Zm7.61-12.9A4.73,4.73,0,0,0,165.38,18a6,6,0,0,0-2.69.55,5,5,0,0,0-1.7,1.35,4.87,4.87,0,0,0-.9,1.71,7.29,7.29,0,0,0-.31,1.61h11A7.75,7.75,0,0,0,169.05,19.28Z" transform="translate(-3 -1.74)"/><path class="cls-1" d="M185.47,32a4.19,4.19,0,0,0,1.16,1.28,5.1,5.1,0,0,0,1.64.73,7.65,7.65,0,0,0,1.92.24,6.64,6.64,0,0,0,1.5-.17,5.19,5.19,0,0,0,1.43-.52,3.11,3.11,0,0,0,1.06-.95,2.5,2.5,0,0,0,.43-1.49c0-1-.68-1.77-2-2.28A40.17,40.17,0,0,0,187,27.3q-1.47-.33-2.88-.78a9.66,9.66,0,0,1-2.48-1.19,5.55,5.55,0,0,1-1.76-1.85,5.24,5.24,0,0,1-.66-2.72,7.3,7.3,0,0,1,.92-3.89,6.63,6.63,0,0,1,2.45-2.4A10.58,10.58,0,0,1,186,13.23a21.73,21.73,0,0,1,3.89-.35,20.48,20.48,0,0,1,3.87.37,10.07,10.07,0,0,1,3.34,1.29,7.53,7.53,0,0,1,2.44,2.39,8,8,0,0,1,1.17,3.78h-6.41a3,3,0,0,0-1.46-2.64,6.76,6.76,0,0,0-3.14-.69,11.33,11.33,0,0,0-1.24.08,3.85,3.85,0,0,0-1.2.31,2.41,2.41,0,0,0-.93.68,1.84,1.84,0,0,0-.38,1.21,1.87,1.87,0,0,0,.67,1.48,5.32,5.32,0,0,0,1.73.92,20.82,20.82,0,0,0,2.44.64c.92.19,1.86.39,2.8.62a29.57,29.57,0,0,1,2.87.8,9.61,9.61,0,0,1,2.5,1.26,6.17,6.17,0,0,1,1.75,1.95,5.71,5.71,0,0,1,.66,2.86,7.8,7.8,0,0,1-1,4.06,7.92,7.92,0,0,1-2.54,2.64,10.51,10.51,0,0,1-3.58,1.4,20.73,20.73,0,0,1-4.1.4,20,20,0,0,1-4.18-.43,11.24,11.24,0,0,1-3.63-1.42,8.2,8.2,0,0,1-2.61-2.63,8.32,8.32,0,0,1-1.12-4.11H185A3.71,3.71,0,0,0,185.47,32Z" transform="translate(-3 -1.74)"/><path class="cls-1" d="M217.1,13.54v4.51h-4.94V30.19a3.27,3.27,0,0,0,.57,2.28A3.3,3.3,0,0,0,215,33c.38,0,.74,0,1.09,0a10,10,0,0,0,1-.15v5.22a14.88,14.88,0,0,1-1.9.19c-.7,0-1.38.05-2,.05a20.16,20.16,0,0,1-3-.21,7.27,7.27,0,0,1-2.47-.83A4.45,4.45,0,0,1,206,35.51a6.24,6.24,0,0,1-.62-3V18.05h-4.08V13.54h4.08V6.19h6.74v7.35Z" transform="translate(-3 -1.74)"/><path class="cls-1" d="M254.72,4.19v6.27H238.36v7.83h14.19v5.79H238.36v14H230.9V4.19Z" transform="translate(-3 -1.74)"/><path class="cls-1" d="M263.08,13.54V18.1h.09A8.33,8.33,0,0,1,264.45,16a8.62,8.62,0,0,1,1.85-1.67,9.74,9.74,0,0,1,2.23-1.07,8.49,8.49,0,0,1,2.47-.37,5.56,5.56,0,0,1,1.47.23v6.27a10.88,10.88,0,0,0-1.14-.17,11.35,11.35,0,0,0-1.28-.07,7.19,7.19,0,0,0-3.13.62,5.42,5.42,0,0,0-2.06,1.68,6.82,6.82,0,0,0-1.12,2.49,13.66,13.66,0,0,0-.33,3.08V38.07h-6.74V13.54Z" transform="translate(-3 -1.74)"/><path class="cls-1" d="M281.09,13.54V38.07h-6.74V13.54Z" transform="translate(-3 -1.74)"/><path class="cls-1" d="M292,32.18a6.9,6.9,0,0,0,7.88.46,4.22,4.22,0,0,0,1.8-2.16h5.94a11.32,11.32,0,0,1-4.37,6.32,12.91,12.91,0,0,1-7.12,1.89,14.15,14.15,0,0,1-5.22-.92A10.94,10.94,0,0,1,287,35.13a12,12,0,0,1-2.49-4.08,15,15,0,0,1-.87-5.22,14.1,14.1,0,0,1,.9-5.12,11.72,11.72,0,0,1,2.56-4.11,12.29,12.29,0,0,1,4-2.73,12.78,12.78,0,0,1,5.1-1,11.63,11.63,0,0,1,5.46,1.21,10.86,10.86,0,0,1,3.82,3.25A13.42,13.42,0,0,1,307.56,22a17.32,17.32,0,0,1,.47,5.46h-17.7Q290.48,30.72,292,32.18Zm7.62-12.9A4.77,4.77,0,0,0,295.93,18a5.92,5.92,0,0,0-2.68.55,5,5,0,0,0-2.61,3.06,7.92,7.92,0,0,0-.31,1.61h11A7.84,7.84,0,0,0,299.61,19.28Z" transform="translate(-3 -1.74)"/><path class="cls-1" d="M317.42,13.54V17h.15a7.69,7.69,0,0,1,3.32-3.11,9.53,9.53,0,0,1,4.17-1,11.51,11.51,0,0,1,4.44.73,6.58,6.58,0,0,1,2.73,2,8,8,0,0,1,1.4,3.18A20.44,20.44,0,0,1,334,23V38.07h-6.74V24.22a8.66,8.66,0,0,0-.94-4.54A3.7,3.7,0,0,0,323,18.19a4.67,4.67,0,0,0-4,1.64c-.83,1.09-1.23,2.88-1.23,5.38V38.07H311V13.54Z" transform="translate(-3 -1.74)"/><path class="cls-1" d="M354.91,35a7,7,0,0,1-3.11,2.86,10.26,10.26,0,0,1-4.34.88,10.49,10.49,0,0,1-4.84-1.07,9.8,9.8,0,0,1-3.45-2.89,13.43,13.43,0,0,1-2-4.2,17.58,17.58,0,0,1-.69-4.93,16.48,16.48,0,0,1,.69-4.77,12.48,12.48,0,0,1,2-4.06,10.41,10.41,0,0,1,3.4-2.83,10.1,10.1,0,0,1,4.74-1.06,9.79,9.79,0,0,1,4.16.92,7.21,7.21,0,0,1,3.1,2.73h.1V4.19h6.74V38.07H355V35Zm-.29-12.13a6.94,6.94,0,0,0-1-2.47,5.45,5.45,0,0,0-1.78-1.73,5.26,5.26,0,0,0-2.75-.67,5.5,5.5,0,0,0-2.8.67,5.23,5.23,0,0,0-1.83,1.76,7.47,7.47,0,0,0-1,2.49,13.2,13.2,0,0,0-.31,2.92,12.57,12.57,0,0,0,.33,2.84,7.71,7.71,0,0,0,1.06,2.54,5.91,5.91,0,0,0,1.86,1.8,5,5,0,0,0,2.68.69A5.42,5.42,0,0,0,351.9,33a5.11,5.11,0,0,0,1.77-1.78,7.78,7.78,0,0,0,.95-2.54,15,15,0,0,0,.29-2.95A14.5,14.5,0,0,0,354.62,22.82Z" transform="translate(-3 -1.74)"/><path class="cls-1" d="M370.49,32a4.19,4.19,0,0,0,1.16,1.28,5.1,5.1,0,0,0,1.64.73,7.54,7.54,0,0,0,1.92.24,6.7,6.7,0,0,0,1.5-.17,5,5,0,0,0,1.42-.52,3,3,0,0,0,1.06-.95,2.44,2.44,0,0,0,.43-1.49q0-1.52-2-2.28A40,40,0,0,0,372,27.3c-1-.22-1.93-.48-2.86-.78a9.8,9.8,0,0,1-2.5-1.19,5.62,5.62,0,0,1-1.75-1.85,5.15,5.15,0,0,1-.67-2.72,7.3,7.3,0,0,1,.93-3.89,6.76,6.76,0,0,1,2.44-2.4A10.72,10.72,0,0,1,371,13.23a21.73,21.73,0,0,1,3.89-.35,20.48,20.48,0,0,1,3.87.37,10.16,10.16,0,0,1,3.34,1.29,7.76,7.76,0,0,1,2.45,2.39,8.11,8.11,0,0,1,1.15,3.78h-6.4a3,3,0,0,0-1.47-2.64,6.72,6.72,0,0,0-3.13-.69,11,11,0,0,0-1.23.08,3.77,3.77,0,0,0-1.21.31,2.34,2.34,0,0,0-.93.68,2,2,0,0,0,.29,2.69,5.32,5.32,0,0,0,1.73.92,20.82,20.82,0,0,0,2.44.64c.92.19,1.85.39,2.8.62a29.57,29.57,0,0,1,2.87.8,9.39,9.39,0,0,1,2.49,1.26,6,6,0,0,1,1.75,1.95,5.6,5.6,0,0,1,.67,2.86,7.8,7.8,0,0,1-1,4.06,8,8,0,0,1-2.53,2.64,10.72,10.72,0,0,1-3.59,1.4,20.8,20.8,0,0,1-4.1.4,20,20,0,0,1-4.18-.43,11.24,11.24,0,0,1-3.63-1.42,7.78,7.78,0,0,1-3.72-6.74H370A3.71,3.71,0,0,0,370.49,32Z" transform="translate(-3 -1.74)"/><path class="cls-1" d="M141.68,51.62,154.35,85.5h-7.74L144.05,78H131.38l-2.66,7.55h-7.5L134,51.62Zm.43,20.78L137.83,60h-.1l-4.4,12.43Z" transform="translate(-3 -1.74)"/><path class="cls-1" d="M162.72,61v3.41h.14a7.74,7.74,0,0,1,3.32-3.11,9.71,9.71,0,0,1,4.17-1,11.51,11.51,0,0,1,4.45.74,6.61,6.61,0,0,1,2.72,2,8,8,0,0,1,1.4,3.18,19.68,19.68,0,0,1,.4,4.15V85.5h-6.73V71.64a8.64,8.64,0,0,0-1-4.53,3.71,3.71,0,0,0-3.37-1.5,4.68,4.68,0,0,0-4,1.64q-1.23,1.64-1.23,5.39V85.5h-6.74V61Z" transform="translate(-3 -1.74)"/><path class="cls-1" d="M199.92,61v3.32H200a9.41,9.41,0,0,1,3.2-2.94,8.64,8.64,0,0,1,4.3-1.05,9.85,9.85,0,0,1,4.24.9,6,6,0,0,1,2.92,3.18,10.63,10.63,0,0,1,3-2.85,7.91,7.91,0,0,1,4.44-1.23,13,13,0,0,1,3.61.48,7.25,7.25,0,0,1,2.85,1.52A7,7,0,0,1,230.37,65a11,11,0,0,1,.67,4.06V85.5H224.3V71.6c0-.83,0-1.6-.09-2.33a5,5,0,0,0-.52-1.9,3.29,3.29,0,0,0-1.26-1.28,4.52,4.52,0,0,0-2.26-.48,4.35,4.35,0,0,0-2.3.55,4,4,0,0,0-1.38,1.43,5.69,5.69,0,0,0-.65,2,14,14,0,0,0-.18,2.25V85.5h-6.73V71.74c0-.73,0-1.45-.05-2.16a6.22,6.22,0,0,0-.4-2,3.11,3.11,0,0,0-1.19-1.45,4.5,4.5,0,0,0-2.44-.55,4.75,4.75,0,0,0-1.26.22,4.25,4.25,0,0,0-1.52.81,4.69,4.69,0,0,0-1.26,1.7,7.1,7.1,0,0,0-.52,2.92V85.5h-6.74V61Z" transform="translate(-3 -1.74)"/><path class="cls-1" d="M235.59,64.57a8.18,8.18,0,0,1,2.66-2.51,11.24,11.24,0,0,1,3.64-1.35,20.46,20.46,0,0,1,4.05-.41,28.26,28.26,0,0,1,3.75.26,11.72,11.72,0,0,1,3.46,1,6.78,6.78,0,0,1,2.56,2.11,5.9,5.9,0,0,1,1,3.59V80a24.94,24.94,0,0,0,.19,3.18,5.58,5.58,0,0,0,.66,2.28h-6.84a9.45,9.45,0,0,1-.31-1.16,10,10,0,0,1-.16-1.21,8.73,8.73,0,0,1-3.8,2.32,15,15,0,0,1-4.46.67,12.2,12.2,0,0,1-3.27-.43,7.56,7.56,0,0,1-2.66-1.33,6.06,6.06,0,0,1-1.77-2.28,7.51,7.51,0,0,1-.65-3.27,7.13,7.13,0,0,1,.74-3.44,6.05,6.05,0,0,1,1.9-2.16A8.24,8.24,0,0,1,238.94,72a28.45,28.45,0,0,1,3-.64c1-.16,2-.29,3-.38a17.25,17.25,0,0,0,2.62-.43,4.49,4.49,0,0,0,1.8-.83,1.83,1.83,0,0,0,.62-1.59,3.68,3.68,0,0,0-.36-1.73,2.61,2.61,0,0,0-1-1,3.7,3.7,0,0,0-1.38-.47,11.06,11.06,0,0,0-1.68-.12,5,5,0,0,0-3.13.86,3.75,3.75,0,0,0-1.33,2.84h-6.74A7.93,7.93,0,0,1,235.59,64.57Zm13.32,9.52a10.69,10.69,0,0,1-1.38.35c-.49.09-1,.18-1.54.24s-1.08.14-1.62.24a11.22,11.22,0,0,0-1.49.38,4.63,4.63,0,0,0-1.28.63,3,3,0,0,0-.88,1,3.28,3.28,0,0,0-.33,1.56,3.17,3.17,0,0,0,.33,1.52,2.58,2.58,0,0,0,.9,1,4.13,4.13,0,0,0,1.33.5,8.9,8.9,0,0,0,1.57.14A6,6,0,0,0,247.6,81a4.36,4.36,0,0,0,1.61-1.58,5,5,0,0,0,.64-1.88A11.18,11.18,0,0,0,250,76V73.49A3.17,3.17,0,0,1,248.91,74.09Z" transform="translate(-3 -1.74)"/><path class="cls-1" d="M267.2,51.62V85.5h-6.74V51.62Z" transform="translate(-3 -1.74)"/><path class="cls-1" d="M288.78,77.15a5.47,5.47,0,0,0,1.64,1.92,7.18,7.18,0,0,0,2.39,1.09,11.78,11.78,0,0,0,2.85.36,15,15,0,0,0,2.14-.17,7.31,7.31,0,0,0,2.13-.64,4.57,4.57,0,0,0,1.66-1.31,3.21,3.21,0,0,0,.67-2.11,3,3,0,0,0-.88-2.23,7,7,0,0,0-2.3-1.42,23.37,23.37,0,0,0-3.23-1c-1.2-.28-2.42-.6-3.65-1a30.58,30.58,0,0,1-3.7-1.16,12.93,12.93,0,0,1-3.23-1.78,8,8,0,0,1-3.17-6.69,8.89,8.89,0,0,1,1.11-4.53,10.17,10.17,0,0,1,2.92-3.2,12.44,12.44,0,0,1,4.08-1.9,17.43,17.43,0,0,1,4.55-.62,21.47,21.47,0,0,1,5.11.6,12.64,12.64,0,0,1,4.34,1.92,9.74,9.74,0,0,1,3,3.39,10.41,10.41,0,0,1,1.12,5h-7.21a6,6,0,0,0-.65-2.51A4.22,4.22,0,0,0,299,57.64a6.15,6.15,0,0,0-2.06-.8,12.53,12.53,0,0,0-2.54-.24,8.47,8.47,0,0,0-1.8.19,5,5,0,0,0-1.64.66,4.16,4.16,0,0,0-1.21,1.19,3.16,3.16,0,0,0-.47,1.81,3,3,0,0,0,.38,1.61,3.4,3.4,0,0,0,1.49,1.14,19.05,19.05,0,0,0,3.08,1q2,.53,5.15,1.33c.63.13,1.52.36,2.63.69a12.45,12.45,0,0,1,3.35,1.59,10.08,10.08,0,0,1,2.87,2.91,8.3,8.3,0,0,1,1.21,4.68,10.38,10.38,0,0,1-.9,4.32,9.44,9.44,0,0,1-2.68,3.44,12.82,12.82,0,0,1-4.41,2.25,20.82,20.82,0,0,1-6.1.81,21.27,21.27,0,0,1-5.43-.69,13.76,13.76,0,0,1-4.66-2.16,10.71,10.71,0,0,1-3.19-3.74A11.17,11.17,0,0,1,281,74.25h7.22A6.25,6.25,0,0,0,288.78,77.15Z" transform="translate(-3 -1.74)"/><path class="cls-1" d="M311.66,67.92a11.63,11.63,0,0,1,2.55-4.09,11.86,11.86,0,0,1,4-2.61,15.33,15.33,0,0,1,10.46,0,11.13,11.13,0,0,1,6.58,6.7,15.07,15.07,0,0,1,.9,5.34,14.86,14.86,0,0,1-.9,5.31,11.7,11.7,0,0,1-2.56,4.06,11.13,11.13,0,0,1-4,2.58,15.48,15.48,0,0,1-10.46,0,11.35,11.35,0,0,1-4-2.58,11.68,11.68,0,0,1-2.55-4.06,14.65,14.65,0,0,1-.9-5.31A14.85,14.85,0,0,1,311.66,67.92Zm6.11,8.2a7.79,7.79,0,0,0,1,2.52,5.12,5.12,0,0,0,1.83,1.78,5.47,5.47,0,0,0,2.85.66,5.58,5.58,0,0,0,2.86-.66,5.1,5.1,0,0,0,1.85-1.78,7.57,7.57,0,0,0,1-2.52,14.23,14.23,0,0,0,.28-2.86,14.77,14.77,0,0,0-.28-2.9,7.36,7.36,0,0,0-1-2.51,5.35,5.35,0,0,0-1.85-1.78,5.48,5.48,0,0,0-2.86-.69,5.2,5.2,0,0,0-4.68,2.47,7.56,7.56,0,0,0-1,2.51,14.77,14.77,0,0,0-.27,2.9A14.23,14.23,0,0,0,317.77,76.12Z" transform="translate(-3 -1.74)"/><path class="cls-1" d="M350.56,65.38a4.66,4.66,0,0,0-2.7.74A5.86,5.86,0,0,0,346.08,68a8.23,8.23,0,0,0-1,2.56,14,14,0,0,0-.28,2.78,13.17,13.17,0,0,0,.28,2.7,8.56,8.56,0,0,0,.92,2.5,5.38,5.38,0,0,0,1.73,1.82,4.74,4.74,0,0,0,2.66.71,4.92,4.92,0,0,0,3.73-1.35,6.45,6.45,0,0,0,1.64-3.62h6.5a11.14,11.14,0,0,1-3.8,7.44,12.27,12.27,0,0,1-8,2.57,13.31,13.31,0,0,1-5.05-.93,11.14,11.14,0,0,1-3.92-2.59,11.8,11.8,0,0,1-2.51-4,13.54,13.54,0,0,1-.9-5,16.43,16.43,0,0,1,.82-5.29,12.15,12.15,0,0,1,2.45-4.23,11.15,11.15,0,0,1,3.94-2.77,13.44,13.44,0,0,1,5.31-1,15.5,15.5,0,0,1,4.21.57,11.12,11.12,0,0,1,3.6,1.73,8.93,8.93,0,0,1,3.72,7h-6.59C355.1,66.78,353.45,65.38,350.56,65.38Z" transform="translate(-3 -1.74)"/><path class="cls-1" d="M371.35,61V85.5h-6.74V61Zm.17-8a3.74,3.74,0,1,1-3.74-3.73A3.73,3.73,0,0,1,371.52,53Z" transform="translate(-3 -1.74)"/><path class="cls-1" d="M382.21,79.61a6,6,0,0,0,4.37,1.47,6,6,0,0,0,3.51-1,4.2,4.2,0,0,0,1.8-2.15h5.93a11.33,11.33,0,0,1-4.36,6.31,12.93,12.93,0,0,1-7.12,1.9,14,14,0,0,1-5.22-.93,10.83,10.83,0,0,1-3.94-2.63,11.88,11.88,0,0,1-2.49-4.08,14.86,14.86,0,0,1-.88-5.22,14.12,14.12,0,0,1,.91-5.13,11.87,11.87,0,0,1,6.52-6.83,12.75,12.75,0,0,1,5.1-1,11.75,11.75,0,0,1,5.46,1.21,10.84,10.84,0,0,1,3.81,3.25,13.32,13.32,0,0,1,2.16,4.65,17,17,0,0,1,.48,5.46h-17.7C380.65,77.05,381.2,78.64,382.21,79.61Zm7.62-12.9a4.74,4.74,0,0,0-3.68-1.33,5.76,5.76,0,0,0-2.68.55,5,5,0,0,0-2.62,3,7.92,7.92,0,0,0-.3,1.62h11A7.84,7.84,0,0,0,389.83,66.71Z" transform="translate(-3 -1.74)"/><path class="cls-1" d="M414.05,61v4.51h-4.94V77.62A2.29,2.29,0,0,0,412,80.47c.38,0,.74,0,1.09,0a10,10,0,0,0,1-.14V85.5a16.71,16.71,0,0,1-1.9.19c-.7,0-1.38,0-2,0a20.13,20.13,0,0,1-3-.22,6.94,6.94,0,0,1-2.46-.83A4.38,4.38,0,0,1,403,82.94a6.3,6.3,0,0,1-.61-3V65.48H398.3V61h4.08V53.61h6.73V61Z" transform="translate(-3 -1.74)"/><path class="cls-1" d="M427.61,92.81a9.82,9.82,0,0,1-5.41,1.28c-.7,0-1.38,0-2.06-.07l-2.07-.17V88.3l1.94.19a16.7,16.7,0,0,0,2,.05,2.61,2.61,0,0,0,2-1.05,3.4,3.4,0,0,0,.64-2,3.85,3.85,0,0,0-.29-1.52l-8.59-23h7.17l5.55,16.79h.1L433.92,61h7L430.65,88.54A8.33,8.33,0,0,1,427.61,92.81Z" transform="translate(-3 -1.74)"/><path class="cls-1" d="M189.87,61V85.5h-6.75V61Zm.16-8a3.73,3.73,0,1,1-3.73-3.73A3.73,3.73,0,0,1,190,53Z" transform="translate(-3 -1.74)"/><path class="cls-1" d="M281.45,5.47a3.73,3.73,0,1,1-3.73-3.73A3.73,3.73,0,0,1,281.45,5.47Z" transform="translate(-3 -1.74)"/></svg>