<svg xmlns="http://www.w3.org/2000/svg" width="284.2" height="54.3" xml:space="preserve"><path fill="#F58220" d="M18.2 12.701c3 0 5.5-2.8 5.5-6.2 0-3.399-2.4-6.199-5.5-6.199s-5.4 2.8-5.4 6.199c0 3.4 2.4 6.2 5.4 6.2M48.6 12.701c3 0 5.5-2.8 5.5-6.2 0-3.399-2.4-6.199-5.5-6.199-3 0-5.5 2.8-5.5 6.199 0 3.4 2.5 6.2 5.5 6.2M60.2 36.001c-3.8 6.699-10.3 11.199-18.5 9.5 5-4.699 8.5-11.699 8.9-21.9-4.4-3.2-10.7-5.2-17.2-5.2s-12.8 2-17.2 5.2c.4 10.201 3.9 17.201 8.9 21.9C17 47.2 10.6 42.802 6.8 36.302L0 41.101c7.2 12.6 21.7 15.1 33.5 9.9 11.8 5.301 26.5 2.699 33.6-10.1l-6.9-4.9zm-26.7 5.6c-4.3-3.5-7-8.6-7.6-14.1 1.5-.899 4.5-1.6 7.5-1.6s6.1.7 7.5 1.6c-.5 5.5-3.2 10.5-7.4 14.1"/><path fill="#F58220" d="M18.2 12.701c3 0 5.5-2.8 5.5-6.2 0-3.399-2.4-6.199-5.5-6.199s-5.4 2.8-5.4 6.199c0 3.4 2.4 6.2 5.4 6.2M48.6 12.701c3 0 5.5-2.8 5.5-6.2 0-3.399-2.4-6.199-5.5-6.199-3 0-5.5 2.8-5.5 6.199 0 3.4 2.5 6.2 5.5 6.2M60.2 36.001c-3.8 6.699-10.3 11.199-18.5 9.5 5-4.699 8.5-11.699 8.9-21.9-4.4-3.2-10.7-5.2-17.2-5.2s-12.8 2-17.2 5.2c.4 10.201 3.9 17.201 8.9 21.9C17 47.2 10.6 42.802 6.8 36.302L0 41.101c7.2 12.6 21.7 15.1 33.5 9.9 11.8 5.301 26.5 2.699 33.6-10.1l-6.9-4.9zm-26.7 5.6c-4.3-3.5-7-8.6-7.6-14.1 1.5-.899 4.5-1.6 7.5-1.6s6.1.7 7.5 1.6c-.5 5.5-3.2 10.5-7.4 14.1M68.7 38.601c0 .201 0 .301-.1.5-.1.301-.3.5-.7.701-.1.1-.3.1-.5.1s-.3 0-.5-.1c-.1-.102-.3-.201-.4-.301s-.2-.199-.2-.4c-.1-.299-.1-.699 0-1 .1-.1.1-.299.3-.4.1-.1.2-.199.4-.299.1-.1.3-.1.5-.1s.3 0 .5.1c.1.1.3.1.4.299.1.102.2.201.3.4v.5m-.3 0c0-.1 0-.299-.1-.4 0-.1-.1-.199-.2-.299s-.2-.201-.3-.201c-.1-.1-.2-.1-.4-.1-.1 0-.3 0-.4.1-.1 0-.2.102-.3.201s-.2.199-.2.299c-.1.102-.1.301-.1.4s0 .301.1.4c0 .1.1.199.2.301.2.199.4.299.7.299.1 0 .3 0 .4-.1.1-.1.2-.1.3-.199.1-.102.2-.201.2-.301.1-.099.1-.199.1-.4m-1.1.701H67v-1.301h.5c.1 0 .3 0 .4.1.1.1.1.201.1.301s0 .199-.1.299c-.1.102-.2.102-.3.102l.4.6h-.3l-.3-.6h-.2l.1.499zm.2-.701H67.8s.1 0 .1-.1v-.2l-.1-.102h-.5v.4h.2zM91.3 1.501c1.2 0 2.3.101 3.4.301.9.199 1.8.6 2.7 1.1.7.5 1.3 1.2 1.7 2 .4 1 .6 2 .6 3.1 0 1.2-.3 2.301-.9 3.301-.7 1-1.6 1.699-2.7 2.199 1.5.4 2.7 1.2 3.6 2.5.8 1.2 1.2 2.7 1.2 4.2 0 1.2-.2 2.4-.8 3.5-.5.9-1.2 1.8-2.1 2.4-.9.6-1.9 1.1-3 1.399-1.1.301-2.3.401-3.4.401H79V1.501h12.3zm-.7 10.601c.9 0 1.8-.2 2.5-.7.7-.6 1.1-1.5 1-2.4 0-.5-.1-1-.3-1.5-.2-.399-.5-.699-.9-.899-.4-.2-.8-.4-1.3-.5-.4-.101-.9-.101-1.4-.101h-5.4v6.2l5.8-.1zm.3 11.2c.5 0 1.1-.101 1.6-.2.5-.101.9-.3 1.4-.601.4-.3.7-.6.9-1.1.3-.5.4-1.1.4-1.7 0-1.3-.4-2.3-1.1-2.899-.9-.601-1.9-.9-3-.9h-6.3v7.2l6.1.2zM108.6 23.201c1.8 1.4 4.2 1.5 6.1.4.6-.4 1.1-1 1.4-1.7h4.6c-.7 2.3-1.9 3.9-3.4 4.9-1.7 1-3.6 1.5-5.5 1.5-1.4 0-2.8-.201-4-.701-1.2-.4-2.2-1.101-3.1-2-.9-.9-1.5-2-1.9-3.2-.5-1.3-.7-2.7-.7-4 0-1.4.2-2.7.7-4 .9-2.4 2.7-4.3 5-5.3 1.3-.5 2.6-.8 4-.8 1.5 0 2.9.3 4.2.899 1.2.601 2.2 1.5 3 2.5.8 1.101 1.4 2.3 1.7 3.601.3 1.399.5 2.8.4 4.199h-13.8c.1 1.702.6 3.002 1.3 3.702zm5.9-10c-.8-.7-1.8-1.1-2.8-1-.7 0-1.4.101-2.1.4-.5.2-1 .6-1.3 1-.3.399-.6.8-.7 1.3-.1.4-.2.8-.2 1.3h8.5c-.2-1.099-.6-2.099-1.4-3zM127.3 23.001c.2.4.5.7.9 1 .4.301.8.5 1.3.601.5.1 1 .2 1.5.2.4 0 .8 0 1.2-.101.4-.1.8-.2 1.1-.399.3-.2.6-.4.8-.7s.4-.7.4-1.101c0-.8-.5-1.399-1.6-1.8a31.8 31.8 0 0 0-4.4-1.2c-.8-.199-1.5-.399-2.2-.6-.7-.2-1.3-.5-1.9-.9-.6-.399-1-.899-1.4-1.399-.4-.601-.5-1.4-.5-2.101 0-1.1.2-2.1.7-3 .5-.8 1.1-1.399 1.9-1.8.8-.5 1.7-.8 2.6-1 1-.2 2-.3 3-.3s2 .1 3 .3c.9.2 1.8.5 2.6 1s1.4 1.101 1.9 1.9c.5.899.8 1.899.9 2.899h-5c0-.8-.4-1.6-1.1-2-.8-.399-1.6-.6-2.4-.6-.3 0-.6 0-1 .1-.3 0-.6.101-.9.2-.3.101-.5.3-.7.5-.2.3-.3.601-.3.9 0 .399.2.8.5 1.1.4.3.9.601 1.3.7.6.2 1.3.4 1.9.5.7.2 1.4.3 2.2.5.7.2 1.5.4 2.2.6.7.2 1.3.601 1.9 1 .6.4 1 .9 1.4 1.5.4.7.5 1.5.5 2.2.1 2.101-.9 4.101-2.8 5.2-.9.5-1.8.901-2.8 1.1s-2.1.301-3.2.301-2.2-.102-3.2-.301-1.9-.6-2.8-1.1c-1.8-1.1-2.9-3.1-2.9-5.2h5c0 .402.1.902.4 1.301zM151.8 8.701v3.5H148v9.4c0 .899.1 1.5.4 1.8.3.3.9.4 1.8.4h.8c.3 0 .5-.101.8-.101v4c-.5.102-1 .102-1.5.201h-1.6c-.8 0-1.5-.1-2.3-.201-.7-.099-1.3-.299-1.9-.599s-1-.8-1.3-1.4c-.3-.7-.5-1.5-.5-2.3v-11.1h-3.2v-3.6h3.2v-5.7h5.2v5.7h3.9zM181 1.501v4.9h-12.7v6.1h11v4.5h-11v10.901h-5.8V1.501H181zM187.5 8.701v3.5h.1c.2-.6.6-1.1 1-1.6s.9-.9 1.4-1.3c.5-.4 1.1-.601 1.7-.801.6-.199 1.3-.3 1.9-.3.4 0 .8.101 1.1.2v4.9c-.3-.101-.6-.101-.9-.101-.3 0-.7-.1-1-.1-.8 0-1.7.1-2.4.5-.6.3-1.2.7-1.6 1.3-.4.6-.7 1.2-.9 1.9-.2.8-.3 1.6-.3 2.399v8.601h-5.2v-19h5.1v-.098zM200.9 8.701v19h-5.2v-19h5.2zm.1-5.8c0 1.5-1.2 2.7-2.7 2.7s-2.7-1.2-2.7-2.7 1.2-2.7 2.7-2.7c1.5 0 2.7 1.2 2.7 2.7zM209.4 23.201c1.8 1.4 4.2 1.5 6.1.4.6-.4 1.1-1 1.4-1.7h4.6c-.7 2.3-1.9 3.9-3.4 4.9-1.7 1-3.6 1.5-5.5 1.5-1.4 0-2.8-.201-4-.701-1.2-.4-2.2-1.101-3.1-2-.9-.9-1.5-2-1.9-3.2-.5-1.3-.7-2.7-.7-4 0-1.4.2-2.7.7-4 .9-2.4 2.7-4.3 5-5.3 1.3-.5 2.6-.8 4-.8 1.5 0 2.9.3 4.2.899 1.2.601 2.2 1.5 3 2.5.8 1.101 1.4 2.3 1.7 3.601.3 1.399.5 2.8.4 4.199h-13.7c-.1 1.702.4 3.002 1.2 3.702zm5.9-10c-.8-.7-1.8-1.1-2.9-1-.7 0-1.4.101-2.1.4-.5.2-1 .6-1.3 1-.3.399-.6.8-.7 1.3-.1.4-.2.8-.2 1.3h8.5c-.2-1.099-.6-2.099-1.3-3zM228.6 8.701v2.601h.1c.6-1 1.5-1.9 2.6-2.4 1-.5 2.1-.7 3.2-.8 1.2 0 2.3.2 3.4.6.8.3 1.6.9 2.1 1.601.5.699.9 1.6 1.1 2.5.2 1.1.3 2.1.3 3.199v11.7h-5.2v-10.7c0-1.6-.2-2.699-.7-3.5-.5-.8-1.4-1.199-2.6-1.199-1.4 0-2.5.399-3.1 1.3-.6.8-1 2.2-1 4.2v10h-5.2v-19h5v-.102zM257.7 25.302c-.6 1-1.4 1.8-2.4 2.199-1.1.5-2.2.7-3.4.7-1.3 0-2.6-.299-3.8-.799-1.1-.5-2-1.3-2.7-2.2-.7-1-1.3-2.1-1.6-3.3-.4-1.2-.5-2.5-.5-3.8s.2-2.5.5-3.7c.3-1.1.9-2.2 1.6-3.2 1.5-2 3.8-3.1 6.3-3 1.1 0 2.2.2 3.2.7s1.8 1.2 2.4 2.1h.1v-9.5h5.2v26.301h-5l.1-2.501zm-.3-9.401c-.1-.7-.4-1.3-.8-1.9-.4-.5-.8-1-1.4-1.3-.7-.399-1.4-.5-2.1-.5-.8 0-1.5.2-2.2.5-.6.3-1.1.8-1.4 1.4-.4.6-.6 1.2-.8 1.899-.2.7-.2 1.5-.2 2.2s.1 1.5.3 2.2c.2.7.4 1.4.8 2s.9 1 1.4 1.4c.6.399 1.4.6 2.1.5.8 0 1.5-.2 2.2-.5.6-.301 1-.801 1.4-1.4s.6-1.3.7-2c.2-.8.2-1.5.2-2.3.1-.699 0-1.399-.2-2.199zM269.7 23.001c.2.4.5.801.9 1 .4.301.8.5 1.3.601.5.1 1 .2 1.5.2.4 0 .8 0 1.2-.101.4-.1.8-.2 1.1-.399.3-.2.6-.5.8-.801.2-.3.3-.699.3-1.1 0-.8-.5-1.4-1.6-1.8-1.4-.5-2.9-.9-4.4-1.2-.8-.2-1.5-.4-2.2-.6-.7-.2-1.3-.5-1.9-.9s-1-.9-1.4-1.4c-.4-.6-.5-1.399-.5-2.1 0-1.1.2-2.1.7-3 .5-.8 1.1-1.4 1.9-1.8.8-.5 1.7-.8 2.6-1 1-.2 2-.3 3-.3s2 .1 3 .3c.9.2 1.8.5 2.6 1s1.4 1.1 1.9 1.899c.5.9.9 1.9.9 2.9h-5c0-.8-.4-1.6-1.1-2-.8-.4-1.6-.6-2.4-.6-.3 0-.6 0-1 .1-.3 0-.6.1-.9.2-.3.1-.5.3-.7.5-.2.3-.3.6-.3.899 0 .4.2.801.5 1.101.4.3.9.6 1.3.7.6.199 1.3.399 1.9.5.7.199 1.4.3 2.2.5.7.199 1.5.399 2.2.6s1.3.6 1.9 1 1 .9 1.4 1.5c.4.7.5 1.5.5 2.2 0 1.1-.2 2.2-.8 3.1-.5.8-1.2 1.5-2 2.101-.8.5-1.8.899-2.8 1.1-1 .199-2.1.299-3.2.299s-2.2-.1-3.2-.299c-1-.201-1.9-.6-2.8-1.1-1.8-1.101-2.9-3.101-2.9-5.2h5c.2.501.3 1.001.5 1.4zM284.2 7.201c0 .2 0 .5-.1.7s-.2.4-.4.6c-.2.2-.4.301-.6.4s-.4.1-.6.1c-.2 0-.5 0-.7-.1-.2-.1-.4-.2-.6-.4-.2-.199-.3-.399-.4-.6-.1-.2-.1-.5-.1-.7s0-.5.1-.7c.3-.6.9-1.1 1.6-1.1.2 0 .5 0 .7.1.2.101.4.2.6.4.2.2.3.4.4.6 0 .301.1.5.1.7zm-.4 0c0-.2 0-.399-.1-.6s-.2-.3-.3-.5c-.1-.101-.3-.2-.4-.3-.2-.101-.3-.101-.5-.101s-.4 0-.6.101c-.2.1-.3.199-.4.3-.1.1-.2.3-.3.5-.1.399-.1.8 0 1.2.1.199.2.3.3.5.3.3.6.399 1 .399.2 0 .4 0 .5-.1.2-.101.3-.2.4-.3.1-.101.2-.301.3-.5.1-.099.1-.299.1-.599zm-1.7 1.101h-.3v-2h.7c.2 0 .4 0 .5.1.2.2.3.6.1.8-.1.101-.2.101-.4.101l.6.899h-.3l-.5-.8h-.3l-.1.9zm.4-1.2H282.8l.1-.101V6.701l-.1-.1h-.6v.6l.3-.099zM81.7 47.201c0 2.201 1.7 3 3.6 3 1.2 0 3.2-.398 3.2-2 0-1.699-2.4-2-4.8-2.699-2.4-.6-4.8-1.6-4.8-4.6 0-3.301 3.1-4.9 6.1-4.9 3.4 0 6.5 1.5 6.5 5.199H88c-.1-2-1.5-2.5-3.2-2.5-1.1 0-2.5.5-2.5 1.801 0 1.199.8 1.4 4.8 2.5 1.2.301 4.8 1 4.8 4.699 0 3-2.3 5.201-6.7 5.201-3.6 0-6.9-1.801-6.9-5.801l3.4.1zM93.5 44.402c.2-3 2.9-3.9 5.5-3.9 2.3 0 5.1.5 5.1 3.301v6.199c-.1.9.1 1.801.4 2.6h-3.3c-.1-.4-.2-.699-.2-1.1-1.1 1-2.5 1.5-3.9 1.5-2.2 0-4-1.1-4-3.5 0-2.699 2-3.301 4-3.6 2-.301 3.8-.201 3.8-1.5 0-1.301-1-1.6-2.1-1.6-1.2 0-2 .5-2.1 1.799l-3.2-.199zm7.4 2.4c-.6.5-1.7.5-2.7.699s-1.9.6-1.9 1.699c0 1.102.9 1.5 2 1.5 2.5 0 2.6-2 2.6-2.699v-1.199zM112.7 52.601h-3.6l-4-11.699h3.4l2.5 8 2.5-8h3.2l-4 11.699zM120.2 47.501c.1 2 1.1 3 2.9 3 1.3 0 2.3-.801 2.5-1.5h2.8c-.9 2.801-2.8 3.9-5.5 3.9-3.7 0-6-2.5-6-6.201 0-3.5 2.4-6.199 6-6.199 4 0 5.9 3.4 5.7 7h-8.4zm5.2-2.099c-.3-1.6-1-2.5-2.6-2.5-1.4-.1-2.6 1-2.7 2.4v.1h5.3zM140.3 39.402h-4.8v-3h13.3v3h-4.9v13.199h-3.6V39.402zM150.3 36.402h3.2v6.1h.1c.7-1.199 2-1.9 3.4-2 3.4 0 4.3 1.9 4.3 4.801v7.199h-3.2v-6.6c0-1.9-.6-2.9-2.1-2.9-1.7 0-2.5 1-2.5 3.4v6.199h-3.2V36.402zM165.9 47.501c.1 2 1.1 3 2.9 3 1.3 0 2.3-.801 2.5-1.5h2.9c-.9 2.801-2.8 3.9-5.5 3.9-3.7 0-6-2.5-6-6.201 0-3.5 2.4-6.199 6-6.199 4 0 5.9 3.4 5.7 7h-8.5zm5.3-2.099c-.3-1.6-1-2.5-2.6-2.5-1.4-.1-2.6 1-2.7 2.4v.1h5.3zM175.9 40.802h3v1.6c.8-1.201 2.2-1.9 3.6-1.9 1.5 0 2.8.6 3.4 2 .8-1.199 2.1-1.9 3.5-2 2.5 0 4.3 1.199 4.3 4.199v7.9h-3.2v-6.6c0-1.6-.1-2.9-2-2.9s-2.2 1.5-2.2 3v6.5h-3.2v-6.6c0-1.4.1-2.9-2-2.9-.6 0-2.2.4-2.2 2.701v6.799h-3.2V40.802h.2zM206.6 36.402h3.7l6.1 16.199h-3.7l-1.2-3.6h-6.1l-1.3 3.6h-3.6l6.1-16.199zm-.4 9.9h4.2l-2-5.9-2.2 5.9zM217 36.402h3.2v16.199H217V36.402zM222.8 36.402h3.2v16.199h-3.2V36.402zM233.3 38.701c0 .301-.1.602-.2.9-.1.301-.3.5-.5.701-.2.199-.5.398-.7.5-.3.1-.6.199-.9.199-.3 0-.6-.1-.9-.199-.3-.102-.5-.301-.7-.5-.2-.201-.4-.5-.5-.701-.1-.299-.2-.6-.2-.9 0-.299.1-.6.2-.898.1-.301.3-.5.5-.701.2-.199.5-.4.7-.5.3-.1.6-.199.9-.199.3 0 .6.1.9.199.3.1.5.301.7.5.2.201.4.5.5.701.2.198.2.599.2.898m-.5 0c0-.299 0-.5-.1-.799-.1-.201-.2-.4-.4-.6-.2-.201-.3-.301-.6-.4-.2-.1-.5-.1-.7-.1-.2 0-.5 0-.7.1-.2.1-.4.199-.6.4-.2.199-.3.398-.4.6-.1.199-.1.5-.1.799 0 .301 0 .5.1.701.1.199.2.4.4.6.2.199.3.301.6.4.2.1.5.199.7.199.2 0 .5 0 .7-.1.2-.1.4-.199.6-.4.2-.199.3-.4.4-.6.1-.3.2-.599.1-.8m-2.2 1.3h-.4v-2.5h1c.2 0 .5 0 .7.199.2.102.3.301.2.602a.77.77 0 0 1-.2.5c-.1.1-.3.199-.5.199l.7 1.1h-.5l-.7-1.1h-.4l.1 1zm.5-1.4h.2c.1 0 .1 0 .2-.1.1 0 .1-.1.1-.1 0-.1.1-.1.1-.201 0-.1 0-.1-.1-.199l-.1-.1c-.1 0-.1 0-.2-.1h-.7v.699l.5.101z"/></svg>