<svg xmlns="http://www.w3.org/2000/svg" width="191.548" height="54.3" viewBox="425.152 0 191.548 54.3" xml:space="preserve"><path fill="#F58220" d="M443.651 12.9c3 0 5.5-2.8 5.5-6.2 0-3.399-2.4-6.2-5.5-6.2s-5.5 2.801-5.5 6.2c0 3.4 2.5 6.2 5.5 6.2M474.151 12.9c3 0 5.5-2.8 5.5-6.2 0-3.399-2.4-6.2-5.5-6.2s-5.5 2.801-5.5 6.2c0 3.4 2.5 6.2 5.5 6.2M485.75 36.3c-3.8 6.699-10.3 11.3-18.6 9.5 5-4.801 8.6-11.7 8.9-22-4.4-3.2-10.801-5.2-17.301-5.301-6.5-.1-12.8 2.101-17.3 5.301.399 10.3 3.899 17.3 8.899 22-8.1 1.699-14.5-2.7-18.399-9.2l-6.8 4.899c7.199 12.601 21.8 15.101 33.6 9.9 11.9 5.3 26.6 2.7 33.7-10.2L485.75 36.3zm-26.9 5.6c-4.299-3.5-7-8.6-7.6-14.1 1.5-.9 4.5-1.601 7.6-1.601 3.101 0 6.101.7 7.601 1.601-.601 5.5-3.3 10.5-7.601 14.1M494.35 38.9c0 .2 0 .3-.1.5-.1.3-.4.5-.699.7-.301.1-.601.1-1 0-.101-.101-.301-.101-.4-.3-.1-.101-.2-.2-.2-.4-.101-.2-.101-.3-.101-.5s0-.3.101-.5c.101-.1.2-.3.3-.4.1-.1.2-.199.4-.199.3-.101.6-.101.9 0 .1.1.299.1.399.199.101.101.2.2.3.4 0 .2.1.4.1.5m-.299 0c0-.1 0-.3-.101-.4 0-.1-.101-.199-.2-.3-.199-.2-.4-.3-.699-.3-.101 0-.301 0-.4.1-.1 0-.2.101-.301.2-.1.101-.199.2-.199.3-.1.101-.1.301-.1.4s0 .3.1.4c0 .1.1.199.199.3.101.1.201.2.301.2.4.199.8.1 1.1-.2.1-.101.2-.2.2-.3.1-.1.1-.2.1-.4m-1.201.8h-.199v-1.4h.5c.1 0 .3 0 .4.1.1.1.1.2.1.3 0 .101 0 .2-.1.3-.101.101-.201.101-.301.101l.4.6h-.301l-.299-.6h-.201v.599zm.301-.8h.2s.101 0 .101-.1v-.2l-.101-.101h-.5v.4h.3zM501.551.5h10.899c4.399 0 7.399 1.4 7.399 5.7.101 2.101-1.199 4-3.1 4.8 2.801.801 4.2 3 4.2 5.9 0 4.7-4 6.7-8.2 6.7H501.55V.5h.001zm5.1 9.3h5.1c1.801 0 3.1-.801 3.1-2.801 0-2.199-1.699-2.6-3.5-2.6h-4.799l.099 5.401zm0 9.9h5.4c2 0 3.799-.7 3.799-3s-1.5-3.3-3.699-3.3h-5.5v6.3zM527.651 16.4c.1 2.9 1.6 4.2 4.1 4.2 1.801 0 3.301-1.101 3.6-2.2h4c-1.299 3.9-4 5.6-7.799 5.6-5.301 0-8.5-3.6-8.5-8.8 0-5 3.5-8.8 8.5-8.8 5.699 0 8.399 4.8 8.1 9.9l-12.001.1zm7.4-3c-.4-2.3-1.4-3.6-3.701-3.6-2-.101-3.699 1.399-3.799 3.399v.101h7.5v.1zM545.951 18.2c0 2 1.7 2.8 3.5 2.8 1.3 0 3-.5 3-2.1 0-1.4-1.899-1.9-5.3-2.6-2.6-.601-5.301-1.5-5.301-4.5 0-4.301 3.701-5.4 7.301-5.4s7 1.2 7.4 5.3h-4.4c-.1-1.8-1.5-2.3-3.1-2.3-1 0-2.601.2-2.601 1.6 0 1.601 2.601 1.9 5.2 2.5 2.6.601 5.3 1.601 5.3 4.7 0 4.4-3.8 5.8-7.601 5.8-3.799 0-7.699-1.5-7.899-5.899l4.501.099zM565.651 6.9h3.4V10h-3.4v8.3c0 1.5.4 2 2 2 .5 0 1 0 1.4-.101V23.8c-.9.1-1.801.199-2.701.199-2.799 0-5.299-.699-5.299-4V10h-2.801V6.9h2.801v-5h4.6v5zM501.551 30.7h16.299V35h-11.199v5.3h9.699v3.9h-9.699v9.6h-5.1V30.7zM520.25 37.1h4.4v3.1h.1c.9-2.1 3-3.5 5.301-3.6.299 0 .699.1 1 .2V41c-.5-.1-1.101-.199-1.601-.199-3.399 0-4.5 2.399-4.5 5.399v7.6h-4.601V37.1h-.099zM537.551 34.5h-4.601v-3.8h4.601v3.8zm-4.6 2.6h4.601v16.7h-4.601V37.1zM544.951 46.6c.101 2.899 1.601 4.2 4.101 4.2 1.799 0 3.299-1.101 3.6-2.2h4.1c-1.3 3.899-4.1 5.6-7.8 5.6-5.3 0-8.5-3.6-8.5-8.8 0-5 3.5-8.8 8.5-8.8 5.7 0 8.399 4.8 8.101 9.899l-12.102.101zm7.5-3c-.399-2.3-1.399-3.601-3.7-3.601-2-.1-3.699 1.4-3.8 3.4v.1l7.5.101zM559.75 37.1h4.4v2.3h.1c1.1-1.8 3-2.8 5.1-2.8 4.9 0 6.101 2.8 6.101 6.899V53.8h-4.601v-9.5c0-2.801-.799-4.101-2.899-4.101-2.5 0-3.601 1.4-3.601 4.8V53.8h-4.6V37.1zM590.951 51.7c-1.101 1.8-3 2.601-5.101 2.601-5 0-7.5-4.301-7.5-9 0-4.5 2.5-8.7 7.4-8.7 2-.101 3.801.899 5 2.5h.1v-8.4h4.601V53.8h-4.5v-2.1zm-4-11.6c-3 0-4.101 2.6-4.101 5.3 0 2.6 1.201 5.4 4.101 5.4 3 0 3.899-2.601 3.899-5.4s-1-5.3-3.899-5.3zM602.35 48.4c0 2 1.701 2.8 3.5 2.8 1.301 0 3-.5 3-2.1 0-1.4-1.899-1.9-5.199-2.601-2.6-.6-5.301-1.5-5.301-4.5 0-4.3 3.701-5.399 7.301-5.399s7 1.2 7.4 5.3h-4.4c-.1-1.8-1.5-2.3-3.1-2.3-1 0-2.601.2-2.601 1.6 0 1.601 2.601 1.9 5.2 2.5 2.6.601 5.3 1.601 5.3 4.7 0 4.4-3.8 5.8-7.601 5.8-3.799 0-7.699-1.5-7.899-5.899l4.4.099zM616.651 39.9c0 .2 0 .5-.1.7-.101.2-.201.399-.4.5-.2.1-.301.3-.5.3-.2.1-.4.1-.7.1-.2 0-.399 0-.7-.1-.199-.1-.4-.2-.5-.4-.1-.199-.3-.3-.3-.5-.101-.2-.101-.4-.101-.7 0-.2 0-.5.101-.7s.2-.4.399-.5c.201-.101.301-.3.5-.3.201-.101.4-.101.701-.101.399 0 .899.2 1.199.5.2.2.301.3.4.5-.099.301.001.501.001.701m-.401.1c0-.199 0-.399-.1-.6s-.2-.3-.301-.4c-.1-.1-.299-.199-.399-.3-.2-.1-.3-.1-.5-.1s-.399 0-.5.1c-.2.101-.3.2-.399.3-.101.101-.201.301-.301.4-.1.2-.1.4-.1.6 0 .2 0 .4.1.5.1.2.1.301.301.4.199.3.6.4 1 .4.199 0 .299 0 .5-.101.199-.1.299-.2.399-.3s.2-.3.3-.4V40m-1.599.9h-.301V39h.701c.199 0 .399 0 .5.101.1.1.199.3.199.399 0 .101 0 .301-.1.4s-.2.1-.301.1l.5.801h-.399l-.5-.801h-.3v.9zm.3-1H615.251s.1 0 .1-.1V39.5l-.1-.1h-.6v.5h.3z"/></svg>