<?xml version="1.0" encoding="UTF-8"?>
<svg xmlns="http://www.w3.org/2000/svg" width="100" height="116" viewBox="0 0 100 116">
  <defs>
    <style>
      .cls-1 {
        fill: none;
      }

      .cls-2 {
        fill: #f58220;
      }

      .cls-3 {
        fill: #fff;
      }
    </style>
  </defs>
  <g id="Layer_1" data-name="Layer 1"/>
  <g id="Layer_2" data-name="Layer 2">
    <g id="Layer_1-2" data-name="Layer 1">
      <rect class="cls-1" y="16" width="100" height="100" rx="10" ry="10"/>
      <rect class="cls-2" width="100" height="100" rx="10" ry="10"/>
      <g>
        <path class="cls-3" d="M31.785,32.941c3.591,0,6.505-3.289,6.505-7.351s-2.914-7.353-6.505-7.353-6.503,3.294-6.503,7.353,2.91,7.351,6.503,7.351Z"/>
        <path class="cls-3" d="M68.032,32.941c3.591,0,6.504-3.289,6.504-7.351s-2.913-7.353-6.504-7.353-6.504,3.294-6.504,7.353,2.913,7.351,6.504,7.351Z"/>
        <path class="cls-3" d="M81.879,60.804c-4.577,7.988-12.297,13.426-22.052,11.321,5.953-5.656,10.191-13.963,10.621-26.169-5.275-3.761-12.819-6.192-20.537-6.198-7.721,.006-15.266,2.437-20.539,6.198,.427,12.205,4.663,20.508,10.612,26.163-9.621,2.074-17.258-3.188-21.864-10.998l-8.12,5.815c8.547,14.994,25.919,17.997,39.908,11.781,14.092,6.262,31.615,3.174,40.092-12.096l-8.121-5.816Zm-31.968,6.634c-3.506-2.862-8.028-8.3-9.002-16.812,1.772-1.061,5.338-1.921,9.002-1.921s7.223,.86,8.998,1.919c-.974,8.514-5.498,13.951-8.998,16.813Z"/>
      </g>
    </g>
  </g>
</svg>