<?xml version="1.0" encoding="UTF-8"?><svg xmlns="http://www.w3.org/2000/svg" viewBox="0 0 100 116"><defs><style>.d{fill:#f58220;}.e{fill:#fff;}</style></defs><g id="a"/><g id="b"><g id="c"><rect class="e" x="0" y="16" width="100" height="100" rx="10" ry="10"/><rect class="d" x="0" width="100" height="100" rx="10" ry="10"/><g><path class="e" d="M31.78,32.94c3.59,0,6.5-3.29,6.5-7.35s-2.91-7.35-6.5-7.35-6.5,3.29-6.5,7.35,2.91,7.35,6.5,7.35Z"/><path class="e" d="M68.03,32.94c3.59,0,6.5-3.29,6.5-7.35s-2.91-7.35-6.5-7.35-6.5,3.29-6.5,7.35,2.91,7.35,6.5,7.35Z"/><path class="e" d="M81.88,60.8c-4.58,7.99-12.3,13.43-22.05,11.32,5.95-5.66,10.19-13.96,10.62-26.17-5.27-3.76-12.82-6.19-20.54-6.2-7.72,0-15.27,2.44-20.54,6.2,.43,12.2,4.66,20.51,10.61,26.16-9.62,2.07-17.26-3.19-21.86-11l-8.12,5.81c8.55,14.99,25.92,18,39.91,11.78,14.09,6.26,31.62,3.17,40.09-12.1l-8.12-5.82Zm-31.97,6.63c-3.51-2.86-8.03-8.3-9-16.81,1.77-1.06,5.34-1.92,9-1.92s7.22,.86,9,1.92c-.97,8.51-5.5,13.95-9,16.81Z"/></g></g></g></svg>