<?xml version="1.0" encoding="UTF-8"?><svg xmlns="http://www.w3.org/2000/svg" viewBox="0 0 100 124.01"><defs><style>.g{fill:none;}.h{fill:#f7f7f7;}.i{fill:#f58220;}.j{fill:#e57310;}.k{fill:#fff;}.l{fill:#ecebeb;}.m{fill:#9e8979;}.n{fill:#8c8c8d;}.o{fill:#d06200;}.p{fill:#b39f8c;}.q{fill:#a5a5a6;}.r{fill:#c9c8c9;}.s{fill:#3d3d3e;}</style></defs><g id="a"/><g id="b"><g id="c"><rect class="h" y="24.01" width="100" height="100"/></g><g id="d"><rect class="s" x="0" y="8.01" width="100" height="100" rx="10" ry="10"/></g><g id="e"><g><polygon class="g" points="63.75 96.45 63.76 96.46 63.75 96.45 63.75 96.45"/><polygon class="l" points="63.75 96.45 63.75 96.45 39.28 71.94 39.32 71.95 33.93 66.56 33.85 66.55 0 71.18 0 77.3 39.25 71.94 63.75 96.45"/><polygon class="l" points="0 77.49 .36 77.84 0 77.46 0 77.49"/><polygon class="l" points="70 61.46 77.96 69.28 77.73 69.27 82.63 74.2 82.81 74.21 100 70.46 100 64.44 77.99 69.28 70 61.46"/><polygon class="l" points="53.82 45.4 53.87 45.44 86.9 38.8 53.82 45.4"/><polygon class="l" points="100 91.69 100 91.68 82.81 74.21 100 91.69"/><polygon class="r" points="67.94 73.44 82.63 74.2 77.73 69.27 33.93 66.56 39.32 71.95 56.06 72.94 81.07 97.51 93.3 98.32 67.94 73.44"/><polygon class="r" points="53.66 45.49 53.66 45.49 9.87 42.5 9.91 42.53 53.69 45.51 53.66 45.49"/><polygon class="o" points="39.32 71.95 39.28 71.94 63.75 96.45 63.76 96.46 81.13 97.57 81.07 97.51 56.06 72.94 39.32 71.95"/><polygon class="m" points="82.63 74.2 67.94 73.44 93.3 98.32 93.4 98.41 100 98.81 100 91.69 82.81 74.21 82.63 74.2"/><polygon class="p" points="100 91.68 100 70.46 82.81 74.21 100 91.68"/><polygon class="n" points="33.85 66.55 33.93 66.56 77.73 69.27 77.96 69.28 70 61.46 53.69 45.51 9.91 42.53 9.85 42.53 9.85 42.54 9.87 42.53 33.85 66.55"/><polygon class="q" points="53.69 45.51 70 61.46 77.99 69.28 100 64.44 100 50.27 88.26 38.53 86.9 38.8 53.87 45.44 53.66 45.49 53.66 45.49 53.69 45.51"/><polygon class="j" points="39.25 71.94 0 77.3 0 77.46 .36 77.84 23.59 102.94 63.76 96.46 63.75 96.45 39.25 71.94"/><polygon class="q" points="9.87 42.53 9.85 42.54 0 43.85 0 71.18 33.85 66.55 9.87 42.53"/></g></g><g id="f"><path class="i" d="M50.08,0c-10.64,0-19.3,8.66-19.3,19.29v.91c0,10.19,17.32,34.43,18.06,35.45,.28,.4,.74,.63,1.23,.63s.95-.24,1.23-.63c.74-1.03,18.06-25.26,18.06-35.45v-.91c0-10.64-8.65-19.3-19.3-19.3Z"/><circle class="k" cx="50.08" cy="17.21" r="9.21"/></g></g></svg>