<?xml version="1.0" encoding="UTF-8"?><svg xmlns="http://www.w3.org/2000/svg" viewBox="0 0 97 113"><defs><style>.f{stroke-width:5px;}.f,.g,.h{fill:#fff;}.f,.h{stroke:#fff;stroke-miterlimit:10;}.i{fill:#f58220;}.j{fill:#3d3d3e;opacity:.3;}</style></defs><g id="a"/><g id="b"><g id="c"><rect class="g" y="16" width="97" height="97" rx="10" ry="10"/><rect class="i" width="97" height="97" rx="10" ry="10"/><path class="g" d="M34.44,18.04h29.25V9.51c0-.67,.55-1.22,1.22-1.22s1.22,.55,1.22,1.22v8.53h7.31c5.38,0,9.75,4.36,9.75,9.75v48.75c0,5.38-4.37,9.75-9.75,9.75H24.69c-5.39,0-9.75-4.37-9.75-9.75V27.79c0-5.39,4.36-9.75,9.75-9.75h7.31V9.51c0-.67,.55-1.22,1.22-1.22s1.22,.55,1.22,1.22v8.53Zm-9.75,2.44c-4.04,0-7.31,3.28-7.31,7.31v7.31h63.38v-7.31c0-4.04-3.28-7.31-7.31-7.31h-7.31v6.09c0,.67-.55,1.22-1.22,1.22s-1.22-.55-1.22-1.22v-6.09h-29.25v6.09c0,.67-.55,1.22-1.22,1.22s-1.22-.55-1.22-1.22v-6.09h-7.31Zm-7.31,56.06c0,4.04,3.27,7.31,7.31,7.31h48.75c4.04,0,7.31-3.28,7.31-7.31V37.54H17.37v39Zm31.69-25.08l2.03-2.09c3.34-3.44,8.85-3.44,12.19,0,3.21,3.29,3.21,8.55,0,11.85l-11.59,11.93c-1.43,1.48-3.81,1.48-5.24,0l-11.59-11.93c-3.21-3.31-3.21-8.56,0-11.85,3.34-3.44,8.85-3.44,12.19,0l2.03,2.09Zm-12.48,8.06l11.61,11.93c.47,.5,1.26,.5,1.74,0l11.61-11.93c2.29-2.35,2.29-6.09,0-8.46-2.39-2.44-6.32-2.44-8.7,0l-3.78,3.88-3.78-3.88c-2.38-2.44-6.31-2.44-8.7,0-2.29,2.36-2.29,6.11,0,8.46Zm0,0l11.61,11.93c.47,.5,1.26,.5,1.74,0l11.61-11.93c2.29-2.35,2.29-6.09,0-8.46-2.39-2.44-6.32-2.44-8.7,0l-3.78,3.88-3.78-3.88c-2.38-2.44-6.31-2.44-8.7,0-2.29,2.36-2.29,6.11,0,8.46Z"/></g><g id="d"><path class="j" d="M17.37,76.54c0,4.04,3.27,7.31,7.31,7.31h48.75c4.04,0,7.31-3.28,7.31-7.31V37.54H17.37v39Z"/></g><g id="e"><path class="h" d="M34.44,18.04h29.25V9.51c0-.67,.55-1.22,1.22-1.22s1.22,.55,1.22,1.22v8.53h7.31c5.38,0,9.75,4.36,9.75,9.75v48.75c0,5.38-4.37,9.75-9.75,9.75H24.69c-5.39,0-9.75-4.37-9.75-9.75V27.79c0-5.39,4.36-9.75,9.75-9.75h7.31V9.51c0-.67,.55-1.22,1.22-1.22s1.22,.55,1.22,1.22v8.53Zm-9.75,2.44c-4.04,0-7.31,3.28-7.31,7.31v7.31h63.38v-7.31c0-4.04-3.28-7.31-7.31-7.31h-7.31v6.09c0,.67-.55,1.22-1.22,1.22s-1.22-.55-1.22-1.22v-6.09h-29.25v6.09c0,.67-.55,1.22-1.22,1.22s-1.22-.55-1.22-1.22v-6.09h-7.31Zm-7.31,56.06c0,4.04,3.27,7.31,7.31,7.31h48.75c4.04,0,7.31-3.28,7.31-7.31V37.54H17.37v39Zm31.69-25.08l2.03-2.09c3.34-3.44,8.85-3.44,12.19,0,3.21,3.29,3.21,8.55,0,11.85l-11.59,11.93c-1.43,1.48-3.81,1.48-5.24,0l-11.59-11.93c-3.21-3.31-3.21-8.56,0-11.85,3.34-3.44,8.85-3.44,12.19,0l2.03,2.09Zm-12.48,8.06l11.61,11.93c.47,.5,1.26,.5,1.74,0l11.61-11.93c2.29-2.35,2.29-6.09,0-8.46-2.39-2.44-6.32-2.44-8.7,0l-3.78,3.88-3.78-3.88c-2.38-2.44-6.31-2.44-8.7,0-2.29,2.36-2.29,6.11,0,8.46Zm0,0l11.61,11.93c.47,.5,1.26,.5,1.74,0l11.61-11.93c2.29-2.35,2.29-6.09,0-8.46-2.39-2.44-6.32-2.44-8.7,0l-3.78,3.88-3.78-3.88c-2.38-2.44-6.31-2.44-8.7,0-2.29,2.36-2.29,6.11,0,8.46Z"/><path class="f" d="M36.59,59.53l11.61,11.93c.47,.5,1.26,.5,1.74,0l11.61-11.93c2.29-2.35,2.29-6.09,0-8.46-2.39-2.44-6.32-2.44-8.7,0l-3.78,3.88-3.78-3.88c-2.38-2.44-6.31-2.44-8.7,0-2.29,2.36-2.29,6.11,0,8.46Z"/></g></g></svg>