<?xml version="1.0" encoding="UTF-8"?><svg xmlns="http://www.w3.org/2000/svg" viewBox="0 0 293.35 334.57"><defs><style>.d{fill:none;}.e{fill:#f47d20;}</style></defs><g id="a"/><g id="b"><g id="c"><g><path class="e" d="M79.88,53.92c13.17,0,23.85-12.06,23.85-26.95S93.05,0,79.88,0s-23.85,12.08-23.85,26.96,10.67,26.95,23.85,26.95Z"/><path class="e" d="M212.79,53.92c13.17,0,23.85-12.06,23.85-26.95S225.96,0,212.79,0s-23.85,12.08-23.85,26.96,10.68,26.95,23.85,26.95Z"/><path class="e" d="M263.57,156.08c-16.78,29.29-45.09,49.23-80.86,41.51,21.83-20.74,37.37-51.2,38.94-95.96-19.34-13.79-47.01-22.71-75.3-22.73-28.31,.02-55.98,8.94-75.31,22.73,1.57,44.75,17.1,75.2,38.91,95.94-35.28,7.6-63.28-11.69-80.17-40.33L0,178.57c31.34,54.98,95.04,65.99,146.34,43.2,51.67,22.96,115.93,11.64,147.01-44.35l-29.78-21.33Zm-117.22,24.33c-12.85-10.5-29.44-30.43-33.01-61.65,6.5-3.89,19.57-7.04,33.01-7.04s26.48,3.15,33,7.04c-3.57,31.22-20.16,51.16-33,61.65Z"/></g><rect class="d" x="79.88" y="256.6" width="132.91" height="77.97"/></g></g></svg>