<?xml version="1.0" encoding="UTF-8"?>
<svg xmlns="http://www.w3.org/2000/svg" width="581.96" height="527" viewBox="0 0 581.96 527">
  <defs>
    <style>
      .cls-1 {
        fill: #f58220;
      }

      .cls-2 {
        fill: #00457c;
      }

      .cls-3 {
        fill: #0079c1;
      }

      .cls-4 {
        fill: #e6e6e6;
      }

      .cls-5 {
        fill: #b3b3b3;
      }

      .cls-6 {
        fill: #735260;
      }

      .cls-7 {
        fill: #3d3d3e;
      }

      .cls-8 {
        stroke-linecap: round;
        stroke-width: 4px;
      }

      .cls-8, .cls-9 {
        fill: none;
        stroke: #fff;
        stroke-miterlimit: 10;
      }
    </style>
  </defs>
  <g id="Layer_1" data-name="Layer 1"/>
  <g id="Layer_2" data-name="Layer 2">
    <g id="Layer_1-2" data-name="Layer 1">
      <path class="cls-1" d="M484.869,150.609c-4.632,0-9.14-2.384-11.654-6.667-20.522-34.955-49.861-64.25-84.846-84.72-36.026-21.08-77.265-32.222-119.256-32.222-7.353,0-14.77,.341-22.045,1.013-7.426,.689-13.999-4.777-14.685-12.201-.686-7.424,4.776-13.999,12.201-14.685,8.097-.748,16.35-1.127,24.529-1.127,46.779,0,92.732,12.42,132.892,35.918,38.962,22.798,71.638,55.425,94.493,94.354,3.775,6.43,1.623,14.702-4.807,18.477-2.146,1.261-4.5,1.86-6.822,1.86Z"/>
      <path class="cls-1" d="M70.023,428.215c-4.073,0-8.099-1.836-10.755-5.328C24.167,376.742,5.613,321.627,5.613,263.5c0-8.302,.391-16.679,1.162-24.898,.696-7.423,7.268-12.882,14.702-12.18,7.423,.696,12.876,7.279,12.18,14.702-.693,7.384-1.044,14.912-1.044,22.376,0,52.173,16.648,101.635,48.144,143.041,4.514,5.934,3.363,14.403-2.571,18.918-2.442,1.857-5.314,2.756-8.163,2.756Z"/>
      <path class="cls-1" d="M269.113,527c-24.763,0-49.278-3.435-72.864-10.208-7.167-2.058-11.308-9.536-9.25-16.702,2.058-7.166,9.534-11.309,16.702-9.249,21.164,6.077,43.171,9.159,65.412,9.159,46.151,0,90.863-13.293,129.303-38.443,37.479-24.521,67.136-58.938,85.765-99.532,3.11-6.776,11.125-9.75,17.9-6.639,6.776,3.109,9.749,11.124,6.639,17.9-20.752,45.22-53.782,83.557-95.521,110.865-42.845,28.031-92.669,42.849-144.085,42.849Z"/>
    </g>
    <g id="paypal">
      <path class="cls-2" d="M139.825,413.526c-1.519,8.332-7.55,47.168-9.33,58.147-.13,.781-.434,1.085-1.302,1.085h-32.371c-3.298,0-5.685-2.864-5.251-6.032l25.428-161.379c.651-4.166,4.383-7.333,8.679-7.333,66.088,0,71.642-1.606,88.522,4.947,26.079,10.111,28.466,34.498,19.093,60.881-9.33,27.164-31.46,38.837-60.794,39.184-18.833,.304-30.158-3.038-32.675,10.501h0Z"/>
    </g>
    <g id="Layer_5" data-name="Layer 5">
      <path class="cls-3" d="M246.442,351.084c-.781-.564-1.085-.781-1.302,.564-.868,4.947-2.213,9.763-3.819,14.58-17.314,49.382-65.307,45.086-88.739,45.086-2.647,0-4.383,1.432-4.73,4.079-9.807,60.924-11.76,73.638-11.76,73.638-.434,3.081,1.519,5.598,4.6,5.598h27.555c3.732,0,6.813-2.734,7.55-6.466,.304-2.343-.477,2.647,6.249-39.618,1.996-9.547,6.205-8.548,12.714-8.548,30.809,0,54.849-12.497,62.009-48.731,2.821-15.101,1.996-30.983-10.328-40.182h0Z"/>
      <path class="cls-3" d="M246.442,351.084c-.781-.564-1.085-.781-1.302,.564-.868,4.947-2.213,9.763-3.819,14.58-17.314,49.382-65.307,45.086-88.739,45.086-2.647,0-4.383,1.432-4.73,4.079-9.807,60.924-11.76,73.638-11.76,73.638-.434,3.081,1.519,5.598,4.6,5.598h27.555c3.732,0,6.813-2.734,7.55-6.466,.304-2.343-.477,2.647,6.249-39.618,1.996-9.547,6.205-8.548,12.714-8.548,30.809,0,54.849-12.497,62.009-48.731,2.821-15.101,1.996-30.983-10.328-40.182h0Z"/>
    </g>
    <g id="check">
      <g>
        <path class="cls-6" d="M480.105,302.191c.699-3.029,2.037-6.18,4.087-9.619l.104-.174,54.774-79.282,.02,.014,9.568-13.917c.414-.602,.846-1.181,1.288-1.748l-206.78-50.944-28.467,115.545,165.268,40.717,.138-.591Z"/>
        <polygon class="cls-6" points="566.997 244.328 566.966 244.306 519.986 312.642 553.557 320.913 575.457 232.022 566.997 244.328"/>
      </g>
      <rect class="cls-9" x="508.94" y="260.192" width="38.319" height="12.129" transform="translate(79.026 -118.6) rotate(13.84)"/>
      <line class="cls-8" x1="503.141" y1="209.049" x2="557.902" y2="222.541"/>
      <line class="cls-8" x1="349.352" y1="197.692" x2="550.718" y2="247.303"/>
      <line class="cls-8" x1="342.899" y1="223.887" x2="498.313" y2="262.176"/>
      <line class="cls-8" x1="430.277" y1="275.495" x2="537.37" y2="301.879"/>
      <line class="cls-8" x1="335.912" y1="252.246" x2="392.805" y2="266.263"/>
    </g>
    <g id="pencil">
      <g>
        <path class="cls-1" d="M577.649,195.239c5.943,4.076,5.713,14.693-.515,23.752l-11.663,16.965-23.533-16.379,11.663-16.965c6.189-9.002,15.995-12.984,21.938-8.908l2.109,1.535Z"/>
        <path class="cls-1" d="M489.346,295.644l51.246-74.175,23.572,16.322-51.254,74.553c-1.626,2.366-3.668,4.401-5.852,5.87l-23.432,15.796c-2.144,1.411-2.687,2.765-4.202,1.758-1.514-1.049-.43-2.103,.17-4.967l6.354-27.246c.594-2.57,1.764-5.167,3.399-7.911h0Z"/>
      </g>
      <g>
        <path d="M577.649,195.239c5.943,4.076,5.713,14.693-.515,23.752l-11.663,16.965-23.533-16.379,11.663-16.965c6.189-9.002,15.995-12.984,21.938-8.908l2.109,1.535Z"/>
        <path d="M489.346,295.644l51.246-74.175,23.572,16.322-51.254,74.553c-1.626,2.366-3.668,4.401-5.852,5.87l-23.432,15.796c-2.144,1.411-2.687,2.765-4.202,1.758-1.514-1.049-.43-2.103,.17-4.967l6.354-27.246c.594-2.57,1.764-5.167,3.399-7.911h0Z"/>
      </g>
      <g>
        <path d="M577.649,195.239c5.943,4.076,5.713,14.693-.515,23.752l-11.663,16.965-23.533-16.379,11.663-16.965c6.189-9.002,15.995-12.984,21.938-8.908l2.109,1.535Z"/>
        <path d="M489.346,295.644l51.246-74.175,23.572,16.322-51.254,74.553c-1.626,2.366-3.668,4.401-5.852,5.87l-23.432,15.796c-2.144,1.411-2.687,2.765-4.202,1.758-1.514-1.049-.43-2.103,.17-4.967l6.354-27.246c.594-2.57,1.764-5.167,3.399-7.911h0Z"/>
      </g>
    </g>
    <g id="credit_card" data-name="credit card">
      <path class="cls-7" d="M.479,78.528c-2.709-13.878,6.342-27.322,20.22-30.031L196.579,14.16c13.858-2.706,27.322,6.342,30.031,20.22l24.526,125.628c2.706,13.858-6.362,27.325-20.22,30.031L55.036,224.377c-13.878,2.709-27.325-6.362-30.031-20.22L.479,78.528Z"/>
      <rect class="cls-5" x="154.438" y="43.835" width="51.2" height="38.4" rx="9.6" ry="9.6" transform="translate(-8.742 35.665) rotate(-11.047)"/>
      <path class="cls-4" d="M59.294,147.438c-2.073,.405-3.438,2.432-3.033,4.505s2.432,3.438,4.505,3.033l142.915-28.187c2.073-.405,3.438-2.432,3.033-4.505s-2.432-3.438-4.505-3.033l-142.915,28.187Z"/>
      <path class="cls-4" d="M64.294,172.438c-2.073,.405-3.438,2.432-3.033,4.505s2.432,3.438,4.505,3.033l31.915-6.187c2.073-.405,3.438-2.432,3.033-4.505s-2.432-3.438-4.505-3.033l-31.915,6.187Z"/>
      <path class="cls-4" d="M114.294,162.438c-2.073,.405-3.438,2.432-3.033,4.505s2.432,3.438,4.505,3.033l55.915-11.187c2.073-.405,3.438-2.432,3.033-4.505s-2.432-3.438-4.505-3.033l-55.915,11.187Z"/>
    </g>
  </g>
</svg>